<svg xmlns="http://www.w3.org/2000/svg" viewBox="0 0 488.79 341.25"><defs><style>.cls-1{fill:#fff;}</style></defs><title>Asset 1</title><g id="Layer_2" data-name="Layer 2"><g id="Layer_1-2" data-name="Layer 1"><path class="cls-1" d="M167,341.25V0h-3.51L14.87,53.67v56.72l86.25-30.94v261.8Z"/><path class="cls-1" d="M188.28,188.34V178.8h5.22c3.71,0,5.36,1.79,5.36,4.8s-1.65,4.74-5.36,4.74Zm17.35-4.74c0-5.69-3.95-10.16-11.85-10.16H181.7v32.81h6.58v-12.6h5.5C202.24,193.65,205.63,188.58,205.63,183.6Zm11.25,9.68c0-5,2.35-6.53,6.25-6.53h1.74v-6.91a9,9,0,0,0-8,4.41v-4H210.3v26h6.58Zm12.42,13h6.58v-26H229.3Zm3.34-29.14a3.86,3.86,0,1,0-4-3.85A3.88,3.88,0,0,0,232.64,177.11Zm7,3.1,9.59,26h8l9.63-26h-7l-6.58,20-6.58-20Zm29.22,12.93c0,8.13,5.26,13.53,11.84,13.53a10.27,10.27,0,0,0,8.65-4.23v3.81h6.62v-26h-6.62v3.72a10.28,10.28,0,0,0-8.6-4.14C274.09,179.79,268.83,185,268.83,193.14Zm20.49.09c0,4.94-3.29,7.66-6.91,7.66s-6.86-2.82-6.86-7.75,3.33-7.57,6.86-7.57S289.32,188.3,289.32,193.23Zm14.08,4.94c0,6,3.34,8.08,8.32,8.08h4.14V200.7H312.8c-2.06,0-2.77-.75-2.77-2.49V185.62h5.83v-5.41H310v-6.44H303.4v6.44h-3.1v5.41h3.1Zm28.38-13c3.38,0,6.11,2.17,6.2,5.6H325.62C326.14,187.22,328.63,185.19,331.78,185.19Zm12.36,12.88H337a5.35,5.35,0,0,1-5.21,3.15c-3.29,0-5.93-2.16-6.26-6h19a15.4,15.4,0,0,0,.19-2.53c0-7.76-5.31-12.88-12.83-12.88-7.71,0-13.07,5.22-13.07,13.44s5.5,13.44,13.07,13.44C338.41,206.67,342.73,202.87,344.14,198.07ZM181.61,239.7c0,8.65,5.92,12.88,13.11,12.88s13.4-4.23,13.4-12.88V219.44h-6.63v20.31c0,4.51-2.44,6.86-6.67,6.86s-6.63-2.35-6.63-6.86V219.44h-6.58Zm51.1,12.55h6.58V237c0-7.19-4.32-11.13-10.39-11.13a9.71,9.71,0,0,0-7.84,3.62v-3.25h-6.58v26h6.58V237.87c0-4.19,2.3-6.44,5.87-6.44s5.78,2.25,5.78,6.44Zm12.84,0h6.58v-26h-6.58Zm3.34-29.14a3.86,3.86,0,1,0-4-3.85A3.88,3.88,0,0,0,248.89,223.11Zm7,3.1,9.58,26h8l9.64-26h-7l-6.58,20-6.58-20Zm42.09,5c3.39,0,6.11,2.17,6.21,5.6H291.79C292.31,233.22,294.8,231.19,298,231.19Zm12.36,12.88h-7.09a5.37,5.37,0,0,1-5.22,3.15c-3.29,0-5.92-2.16-6.25-6h19a15.6,15.6,0,0,0,.19-2.54c0-7.76-5.31-12.88-12.83-12.88-7.71,0-13.07,5.22-13.07,13.44s5.5,13.44,13.07,13.44C304.58,252.67,308.9,248.87,310.31,244.07Zm12-4.79c0-5,2.35-6.54,6.25-6.54h1.74v-6.9a9,9,0,0,0-8,4.41v-4h-6.58v26h6.58ZM355,244.82c-.18-9.54-14.61-6.58-14.61-11.32,0-1.51,1.27-2.49,3.71-2.49,2.59,0,4.18,1.36,4.37,3.38h6.3c-.38-5.17-4.18-8.6-10.48-8.6S334,229.27,334,233.59c0,9.54,14.71,6.58,14.71,11.23,0,1.51-1.41,2.68-4,2.68S340.23,246,340,244h-6.63c.29,4.84,4.85,8.64,11.38,8.64C351.08,252.67,355,249.29,355,244.82Zm5.41,7.43H367v-26h-6.58Zm3.33-29.14a3.86,3.86,0,1,0-4-3.85A3.89,3.89,0,0,0,363.72,223.11Zm10.78,21.06c0,6,3.34,8.08,8.32,8.08H387V246.7H383.9c-2.07,0-2.77-.75-2.77-2.49V231.62H387v-5.41h-5.83v-6.44H374.5v6.44h-3.1v5.41h3.1Zm28.28.23-6.72-18.19h-7.38l10.43,25.38-5.64,13h7l16.12-38.35h-7Zm28.57,7.85h6.58v-26h-6.58Zm3.33-29.14a3.86,3.86,0,1,0-4-3.85A3.88,3.88,0,0,0,434.68,223.11Zm28,29.14h6.58V237c0-7.19-4.32-11.13-10.38-11.13a9.72,9.72,0,0,0-7.85,3.62v-3.25h-6.58v26H451V237.87c0-4.19,2.3-6.44,5.87-6.44s5.78,2.25,5.78,6.44ZM205.14,268.11v73.14h-19V268.11Zm15.27,73.14V268.11h19l35.11,44.72V268.11h18.92v73.14H274.54l-35.11-44.72v44.72Zm107.4-16.1h4.36A23.73,23.73,0,0,0,341,323.6a18.44,18.44,0,0,0,6.5-4.27,17.46,17.46,0,0,0,4.07-6.4,22.82,22.82,0,0,0,1.46-8.25,22.51,22.51,0,0,0-1.46-8.15,18.52,18.52,0,0,0-4.17-6.5,18.29,18.29,0,0,0-6.5-4.26,23.25,23.25,0,0,0-8.73-1.56h-4.36Zm-19-57h28.13a32.78,32.78,0,0,1,14,3,36.91,36.91,0,0,1,11.45,8.05,36.09,36.09,0,0,1,7.76,11.64,35.09,35.09,0,0,1,2.81,13.87,35.52,35.52,0,0,1-2.81,13.87,36.14,36.14,0,0,1-7.66,11.64A37,37,0,0,1,351,338.24a33,33,0,0,1-14.07,3H308.79Zm95.27,0v73.14h-19V268.11Zm55.05,46-8.54-24.35L442,314.09Zm5,14.45H437l-4.36,12.71H412.36l27.84-73.14H461l27.84,73.14H468.52Z"/><path class="cls-1" d="M0,335.73v-45.9l31.34,32.79V292.76h6.48v45.59L6.48,305.64v30.09ZM46.06,322a13.47,13.47,0,0,1,4.2-10,14.82,14.82,0,0,1,20.54,0,14.51,14.51,0,0,1,0,20.4,14.39,14.39,0,0,1-10.38,4.09,13.76,13.76,0,0,1-10.22-4.18A14,14,0,0,1,46.06,322Zm6.4.11a9.18,9.18,0,0,0,2.17,6.43,7.65,7.65,0,0,0,5.88,2.39,7.62,7.62,0,0,0,5.87-2.36,10.18,10.18,0,0,0,0-12.64,7.66,7.66,0,0,0-5.87-2.39,7.58,7.58,0,0,0-5.82,2.39A8.75,8.75,0,0,0,52.46,322.09Zm30.15,10.52a3.87,3.87,0,0,1,7.73,0,3.78,3.78,0,0,1-1.14,2.76,3.94,3.94,0,0,1-5.48,0A3.8,3.8,0,0,1,82.61,332.61Z"/></g></g></svg>