<svg width="54" height="54" viewBox="0 0 54 54" fill="none" xmlns="http://www.w3.org/2000/svg">
<path d="M36 36L27 27L18 36" stroke="#96B846" stroke-width="2" stroke-linecap="round" stroke-linejoin="round"/>
<path d="M27 27V47.25" stroke="#96B846" stroke-width="2" stroke-linecap="round" stroke-linejoin="round"/>
<path d="M45.8775 41.3775C48.0721 40.1811 49.8057 38.288 50.8048 35.9969C51.8038 33.7058 52.0115 31.1472 51.395 28.725C50.7785 26.3028 49.3729 24.1549 47.4 22.6202C45.4272 21.0856 42.9995 20.2516 40.5 20.25H37.665C36.984 17.6158 35.7146 15.1702 33.9524 13.0972C32.1902 11.0242 29.9809 9.37763 27.4908 8.28133C25.0006 7.18503 22.2943 6.66752 19.5753 6.7677C16.8563 6.86788 14.1954 7.58314 11.7927 8.85971C9.38993 10.1363 7.30783 11.9409 5.70293 14.138C4.09803 16.3351 3.01209 18.8674 2.52674 21.5446C2.04139 24.2218 2.16927 26.9742 2.90076 29.5948C3.63226 32.2154 4.94833 34.6362 6.75003 36.675" stroke="#96B846" stroke-width="3" stroke-linecap="round" stroke-linejoin="round"/>
<path d="M36 36L27 27L18 36" stroke="#96B846" stroke-width="2" stroke-linecap="round" stroke-linejoin="round"/>
</svg>
