<?xml version="1.0" encoding="utf-8"?>
<!-- Generator: Adobe Illustrator 22.1.0, SVG Export Plug-In . SVG Version: 6.00 Build 0)  -->
<svg version="1.1" id="Layer_1" xmlns:svgjs="http://svgjs.com/svgjs"
	 xmlns="http://www.w3.org/2000/svg" xmlns:xlink="http://www.w3.org/1999/xlink" x="0px" y="0px" viewBox="0 0 512 512"
	 style="enable-background:new 0 0 512 512;" xml:space="preserve">
<style type="text/css">
	.st0{fill:#96B846;}
</style>
<g>
	<path class="st0" d="M389,237c37.1-26.9,45.4-78.9,18.4-116c-2.6-3.6-5.5-7-8.7-10.1c-15-15-35.4-23.2-56.6-22.9
		c-43.6,0.6-78.9,37.4-78.9,82c0,26.6,12.7,51.5,34.3,67c1.1,0.8,1.7,2.1,1.7,3.5v10.7c-11.5,6.6-15.4,21.3-8.8,32.8
		c2.9,5,7.4,8.7,12.8,10.6v9.4c0,13.2,10.8,24,24,24h32c13.2,0,24-10.8,24-24v-9.4c12.5-4.4,19-18.1,14.6-30.6
		c-1.9-5.4-5.7-9.9-10.6-12.8v-10.7C387.3,239.2,387.9,237.8,389,237z M279.3,170c-0.1-35.9,28.2-65.5,63.1-66c0.3,0,0.6,0,0.9,0
		c16.6,0,32.5,6.6,44.3,18.3c26.2,26.1,26.3,68.6,0.2,94.8c-2.5,2.5-5.2,4.8-8,6.9c-5.3,3.8-8.5,10-8.4,16.6v7.4h-56v-7.5
		c0-6.6-3.1-12.7-8.4-16.5C289.5,211.5,279.3,191.4,279.3,170z M359.3,312h-32c-4.4,0-8-3.6-8-8v-8h48v8
		C367.3,308.4,363.7,312,359.3,312z M375.3,280h-64c-4.4,0-8-3.6-8-8s3.6-8,8-8h64c4.4,0,8,3.6,8,8S379.7,280,375.3,280z"/>
	<path class="st0" d="M356.3,138.5c10.2,4.3,17.9,13,20.8,23.6c1.3,4.2,5.7,6.6,9.9,5.4c4.1-1.2,6.6-5.5,5.5-9.7
		c-4.3-15.4-15.4-27.9-30.2-34.1c-4.1-1.7-8.8,0.3-10.4,4.4C350.2,132.2,352.2,136.9,356.3,138.5L356.3,138.5z"/>
	<path class="st0" d="M351.3,64V48c0-4.4-3.6-8-8-8s-8,3.6-8,8v16c0,4.4,3.6,8,8,8S351.3,68.4,351.3,64z"/>
	<path class="st0" d="M297.7,81.7c4.4,0,8-3.6,8-8c0-1.1-0.2-2.2-0.7-3.2l-6.5-14.6c-1.8-4-6.5-5.9-10.6-4.1s-5.9,6.5-4.1,10.6
		l6.5,14.6C291.7,79.8,294.6,81.7,297.7,81.7z"/>
	<path class="st0" d="M260.1,109.1c4.4,0,8-3.6,8-8c0-2.3-1-4.4-2.6-5.9l-11.9-10.7c-3.3-3-8.3-2.7-11.3,0.6
		c-3,3.3-2.7,8.3,0.6,11.3l0,0l11.9,10.7C256.2,108.3,258.1,109.1,260.1,109.1z"/>
	<path class="st0" d="M244.4,143.9c1.4-4.2-0.9-8.7-5.1-10.1l-15.2-4.9c-4.2-1.4-8.7,0.9-10.1,5.1c-1.4,4.2,0.9,8.7,5.1,10.1
		c0,0,0.1,0,0.1,0l15.2,4.9C238.5,150.4,243,148.1,244.4,143.9C244.4,143.9,244.4,143.9,244.4,143.9L244.4,143.9z"/>
	<path class="st0" d="M231.1,179.8l-15.9,1.7c-4.4,0.4-7.6,4.3-7.2,8.7s4.3,7.6,8.7,7.2c0,0,0.1,0,0.1,0l15.9-1.7
		c4.4-0.5,7.6-4.4,7.1-8.8C239.3,182.5,235.4,179.3,231.1,179.8L231.1,179.8z"/>
	<path class="st0" d="M453.8,195.7l15.9,1.7c4.4,0.4,8.3-2.8,8.8-7.2c0.4-4.4-2.7-8.3-7.1-8.8l-15.9-1.7c-4.4-0.5-8.3,2.7-8.8,7.1
		S449.4,195.2,453.8,195.7C453.8,195.7,453.8,195.7,453.8,195.7z"/>
	<path class="st0" d="M449.8,149.4c0.8,0,1.7-0.1,2.5-0.4l15.2-4.9c4.2-1.4,6.5-5.9,5.1-10.1c-1.4-4.2-5.9-6.5-10.1-5.1l-15.2,4.9
		c-4.2,1.4-6.5,5.9-5.1,10.1C443.3,147.2,446.3,149.4,449.8,149.4z"/>
	<path class="st0" d="M431.9,107l11.9-10.7c3.3-3,3.5-8,0.6-11.3c-3-3.3-8-3.5-11.3-0.6l0,0l-11.9,10.7c-3.2,3-3.5,8.1-0.5,11.3
		C423.7,109.6,428.6,109.9,431.9,107z"/>
	<path class="st0" d="M388.8,81.7c3.2,0,6-1.9,7.3-4.7l6.5-14.6c1.8-4,0-8.8-4.1-10.6s-8.8,0-10.6,4.1l-6.5,14.6
		c-1.8,4,0,8.8,4.1,10.6C386.6,81.4,387.7,81.7,388.8,81.7L388.8,81.7z"/>
	<path class="st0" d="M472,424H368v-8c0-12-15.6-20.8-20.4-23.2c-0.4-0.2-0.8-0.4-1.3-0.5L268,368.8c-5-4.4-22.7-19.7-44.3-35.3
		C189.1,308.6,162.3,296,144,296H80v-8c0-4.4-3.6-8-8-8H24c-4.4,0-8,3.6-8,8v176c0,4.4,3.6,8,8,8h48c4.4,0,8-3.6,8-8v-8h23.6
		c5,0.7,45.8,8.7,81.9,15.8c72.2,14.3,82.4,16.2,84.6,16.2H472c13.2,0,24-10.8,24-24v-16C496,434.8,485.2,424,472,424z M64,456H32
		V296h32V456z M480,464c0,4.4-3.6,8-8,8H270.5c-5-0.7-45.8-8.7-81.9-15.8C116.4,441.9,106.3,440,104,440H80V312h64
		c30.3,0,93,50.5,114.6,69.9c0.9,0.8,1.9,1.4,3.1,1.7l79.3,23.8c5,2.6,10.2,6.8,11,8.8V432c0,4.2-3.2,7.6-7.3,8l-77.8-15.6
		L212,393.1c-3.8-2.2-8.7-0.9-10.9,3c-2.2,3.8-0.9,8.7,3,10.9c0,0,0,0,0,0l56,32c0.7,0.4,1.6,0.7,2.4,0.9l80,16
		c0.5,0.1,1,0.2,1.6,0.2c10.2,0,19.2-6.4,22.6-16H472c4.4,0,8,3.6,8,8V464z"/>
</g>
</svg>
