<?xml version="1.0" encoding="utf-8"?>
<!-- Generator: Adobe Illustrator 22.1.0, SVG Export Plug-In . SVG Version: 6.00 Build 0)  -->
<svg version="1.1" id="Layer_1" xmlns:svgjs="http://svgjs.com/svgjs"
	 xmlns="http://www.w3.org/2000/svg" xmlns:xlink="http://www.w3.org/1999/xlink" x="0px" y="0px" viewBox="0 0 512 512"
	 style="enable-background:new 0 0 512 512;" xml:space="preserve">
<style type="text/css">
	.st0{fill:#96B846;}
</style>
<g>
	<g>
		<g>
			<path class="st0" d="M452.4,210.2c10.1-15.5,8.3-35.8-4.6-49.2c-5.7-5.9-8-14.2-6.3-22.2c3.8-18.2-5.2-36.3-22-44.2
				c-7.4-3.5-12.6-10.4-13.9-18.4c-3-18.3-18-32-36.5-33.3c-8.2-0.6-15.5-5.1-19.6-12.2c-9.4-16-28.3-23.3-46.1-17.8
				c-7.8,2.4-16.3,0.8-22.7-4.2c-14.5-11.5-34.9-11.5-49.4,0c-6.4,5.1-14.9,6.7-22.7,4.2c-17.7-5.5-36.7,1.8-46.1,17.8
				c-4.1,7.1-11.5,11.6-19.6,12.2c-18.5,1.3-33.5,15-36.5,33.3c-1.3,8.1-6.5,15-13.9,18.4c-16.8,7.9-25.9,26.1-22,44.2
				c1.7,8-0.7,16.3-6.3,22.2c-12.8,13.4-14.7,33.6-4.6,49.2c4.5,6.8,5.3,15.4,2.1,23c-7.1,17.1-1.6,36.7,13.5,47.5
				c6.6,4.8,10.5,12.5,10.3,20.7c-0.4,18.6,11.8,34.8,29.8,39.4c5.3,1.4,9.9,4.4,13.2,8.6l-41.3,99.8c-5.8,14,7.3,28.4,21.8,23.9
				l45.2-13.9c1.3-0.4,2.7,0.2,3.4,1.4l22.2,41.8c7.1,13.4,26.5,12.4,32.3-1.5l43.1-104c0.6,0,1.1,0,1.7,0l43.1,104
				c5.8,14,25.2,14.9,32.3,1.5l22.2-41.8c0.6-1.2,2.1-1.8,3.4-1.4l45.2,13.9c14.5,4.4,27.6-10,21.8-23.9l-41.3-99.8
				c3.3-4.2,7.9-7.3,13.2-8.6c18-4.7,30.2-20.9,29.8-39.4c-0.2-8.2,3.7-15.9,10.3-20.7c15.1-10.8,20.6-30.4,13.5-47.5
				C447.2,225.7,448,217.1,452.4,210.2L452.4,210.2z M198.2,495.2c-0.9,2.3-4.1,2.4-5.2,0.2l-22.2-41.8c-4-7.6-12.9-11.2-21-8.7
				l-45.2,13.9c-2.3,0.7-4.5-1.6-3.5-3.9l36.7-88.5c8.3,11.3,22.1,17.6,36.7,15.9c8.1-0.9,16.2,2.2,21.5,8.3
				c7.8,9,18.8,13.7,29.9,13.7c3.5,0,7.1-0.5,10.6-1.5L198.2,495.2z M407.5,458.8l-45.2-13.9c-8.2-2.5-17,1.2-21,8.7L319,495.5
				c-1.1,2.2-4.3,2-5.2-0.2L275.6,403c14.5,4,30.3-0.5,40.5-12.3c5.4-6.2,13.4-9.3,21.5-8.3c14.6,1.7,28.4-4.6,36.7-15.9L411,455
				C411.9,457.2,409.8,459.5,407.5,458.8L407.5,458.8z M439.9,202c-7.2,11-8.5,24.8-3.4,37c4.4,10.7,1,22.8-8.4,29.6
				c-10.7,7.7-16.9,20.1-16.5,33.2c0.3,11.6-7.3,21.6-18.5,24.5c-10.5,2.7-19.2,9.5-24.5,18.7c0,0,0,0.1,0,0.1c-1.1,2-2.1,4-2.9,6.2
				c-3.9,10.9-14.7,17.5-26.1,16.2c-13-1.5-26,3.5-34.6,13.4c-7.6,8.7-20,11-30.2,5.6c-3.5-1.8-7.2-3.1-10.9-3.8c0,0-0.1,0-0.1,0
				c-5-1-10.1-1-15.1,0c0,0,0,0-0.1,0c-3.8,0.7-7.5,2-10.9,3.9c-10.2,5.4-22.6,3.1-30.2-5.6c-7.6-8.7-18.6-13.7-30-13.7
				c-1.5,0-3.1,0.1-4.6,0.3c-11.5,1.3-22.2-5.3-26.1-16.2c-0.8-2.2-1.7-4.2-2.9-6.2c0,0,0-0.1-0.1-0.1c-5.3-9.2-14.1-16-24.5-18.7
				c-11.2-2.9-18.8-13-18.5-24.5c0.3-13.1-5.9-25.6-16.5-33.2c-9.4-6.7-12.8-18.9-8.4-29.6c5-12.1,3.8-25.9-3.4-37
				c-6.3-9.7-5.1-22.3,2.8-30.6c9.1-9.5,12.9-22.8,10.2-35.7c-2.4-11.3,3.2-22.6,13.7-27.5c11.9-5.6,20.3-16.6,22.4-29.6
				c1.9-11.4,11.2-19.9,22.7-20.7c13.1-0.9,24.9-8.2,31.6-19.5c5.8-10,17.6-14.5,28.7-11.1c12.5,3.9,26.2,1.3,36.5-6.8
				c9.1-7.2,21.7-7.2,30.7,0c10.3,8.2,23.9,10.7,36.5,6.8c11-3.4,22.8,1.1,28.7,11.1c6.6,11.3,18.4,18.6,31.6,19.5
				c11.5,0.8,20.9,9.3,22.7,20.7c2.1,13,10.5,24,22.4,29.6c10.5,4.9,16.1,16.2,13.7,27.5c-2.7,12.9,1.1,26.2,10.2,35.7
				C445,179.8,446.2,192.4,439.9,202L439.9,202z"/>
			<path class="st0" d="M114,192.1c4.1,0.5,7.9-2.4,8.4-6.5c8.3-67.3,65.8-118.1,133.7-118.1c68,0,125.4,50.8,133.7,118.1
				c0.5,3.8,3.7,6.6,7.4,6.6c0.3,0,0.6,0,0.9-0.1c4.1-0.5,7-4.2,6.5-8.4C395.4,109,331.5,52.5,256,52.5
				c-75.5,0-139.4,56.4-148.6,131.2C106.9,187.9,109.8,191.6,114,192.1L114,192.1z"/>
			<path class="st0" d="M398.1,212.3c-4.1-0.5-7.9,2.4-8.4,6.5C381.4,286.1,324,336.9,256,336.9c-67.9,0-125.4-50.8-133.7-118.1
				c-0.5-4.1-4.2-7-8.4-6.5c-4.1,0.5-7,4.2-6.5,8.4c9.2,74.8,73.1,131.3,148.6,131.3c75.5,0,139.4-56.5,148.6-131.3
				C405.1,216.5,402.2,212.8,398.1,212.3z"/>
			<path class="st0" d="M361.9,171.3c-1.9-5.9-7.1-9.8-13.3-10l-58.8-2.1l-20.2-55.3c-2.1-5.8-7.5-9.5-13.6-9.5s-11.5,3.7-13.6,9.5
				l-20.2,55.3l-58.8,2.1c-6.2,0.2-11.4,4.2-13.3,10s0,12.1,4.9,15.9l46.3,36.3L185.1,280c-1.7,5.9,0.4,12.1,5.4,15.7
				c5,3.6,11.5,3.7,16.6,0.3l48.8-32.9l48.8,32.9c5.1,3.4,11.6,3.3,16.6-0.3c5-3.6,7.1-9.8,5.4-15.7l-16.2-56.6l46.3-36.3
				C361.9,183.4,363.8,177.1,361.9,171.3L361.9,171.3z M301.2,211.9c-4.7,3.7-6.6,9.7-5,15.4l15.9,55.6l-48-32.3
				c-2.5-1.7-5.3-2.5-8.1-2.5s-5.6,0.8-8.1,2.5l-48,32.3l15.9-55.6c1.6-5.7-0.3-11.8-5-15.4l-45.5-35.7l57.8-2.1
				c5.9-0.2,11.1-4,13.1-9.5l19.8-54.3l19.8,54.3c2,5.6,7.2,9.3,13.1,9.5l57.8,2.1L301.2,211.9z"/>
		</g>
	</g>
</g>
</svg>
