<?xml version="1.0" encoding="utf-8"?>
<!-- Generator: Adobe Illustrator 22.1.0, SVG Export Plug-In . SVG Version: 6.00 Build 0)  -->
<svg version="1.1" id="Layer_1" xmlns:svgjs="http://svgjs.com/svgjs"
	 xmlns="http://www.w3.org/2000/svg" xmlns:xlink="http://www.w3.org/1999/xlink" x="0px" y="0px" viewBox="0 0 512 512"
	 style="enable-background:new 0 0 512 512;" xml:space="preserve">
<style type="text/css">
	.st0{fill:#96B846;}
</style>
<g>
	<path class="st0" d="M486.4,256H298.7c-14.1,0-25.6,11.5-25.6,25.6v110.9c0,14.1,11.5,25.6,25.6,25.6h68.3v25.6h-34.1v17.1H256
		v-46.3c-0.1-26.9-18.1-50.5-44-57.6l-49.9-13.6v-12.8c16-11.1,25.6-29.4,25.6-48.9v-8.5c4.7,0,8.5-3.8,8.5-8.5v-25.6
		c0-37.7-30.6-68.2-68.3-68.3H51.2c-9.4,0-17.1,7.6-17.1,17.1v42.7c-0.1,19.4,13,36.4,31.8,41.2c0.8,0.2,1.5,0.3,2.3,0.5v9.5
		c0,19.5,9.6,37.8,25.6,48.9v12.8L44,356.9c-25.9,7.2-43.9,30.7-44,57.6v88.9c0,4.7,3.8,8.5,8.5,8.5h494.9c4.7,0,8.5-3.8,8.5-8.5
		v-34.1c0-4.7-3.8-8.5-8.5-8.5h-51.2v-17.1h-34.1v-25.6h68.3c14.1,0,25.6-11.5,25.6-25.6V281.6C512,267.5,500.5,256,486.4,256z
		 M51.2,230.4v-42.7H128c28.3,0,51.2,22.9,51.2,51.2V256h-5.6c-7.8,0-14.6-5.3-16.6-12.9l-3.7-14.8c-0.8-3.2-3.4-5.6-6.6-6.3
		c-0.6-0.1-1.1-0.2-1.7-0.2c-2.7,0-5.2,1.3-6.8,3.4l-5.1,6.8c-3,4-6.6,7.6-10.5,10.8C112,251.4,98.9,256,85.3,256h-8.5
		c-2.2,0-4.3-0.3-6.4-0.9C59.1,252.3,51.2,242.1,51.2,230.4z M85.3,281.6v-8.5c17.5,0,34.4-6,48-16.9c2.7-2.2,5.2-4.5,7.6-7
		c4.2,13.2,15.9,22.5,29.7,23.7v8.8c0,23.6-19.1,42.7-42.7,42.7S85.3,305.2,85.3,281.6z M128,341.3c5.8,0,11.5-0.9,17.1-2.6v11.1
		c0,2.4,1.1,4.8,3,6.3l-20,16.7l-20-16.7c1.9-1.6,3-3.9,3-6.3v-11.1C116.5,340.5,122.2,341.3,128,341.3z M48.5,373.4l40.3-11
		l33.8,28.2c3.2,2.6,7.8,2.6,10.9,0l33.8-28.2l40.2,10.9c18.5,5.1,31.4,22,31.5,41.2v46.3h-25.6v-42.7h-17.1v42.7H59.7v-42.7H42.7
		v42.7H17.1v-46.3C17.1,395.3,30,378.5,48.5,373.4z M494.9,477.9v17.1H17.1v-17.1H494.9z M384,443.7v-93.9h17.1v93.9H384z
		 M494.9,392.5c0,4.7-3.8,8.5-8.5,8.5h-68.3v-59.7c0-4.7-3.8-8.5-8.5-8.5h-34.1c-4.7,0-8.5,3.8-8.5,8.5v59.7h-68.3
		c-4.7,0-8.5-3.8-8.5-8.5V281.6c0-4.7,3.8-8.5,8.5-8.5h187.7c4.7,0,8.5,3.8,8.5,8.5V392.5z"/>
	<path class="st0" d="M486.4,0H332.8c-14.1,0-25.6,11.5-25.6,25.6v8.5h-8.5c-14.1,0-25.6,11.5-25.6,25.6v119.5
		c0,14.1,11.5,25.6,25.6,25.6h153.6c14.1,0,25.6-11.5,25.6-25.6v-8.5h8.5c14.1,0,25.6-11.5,25.6-25.6V25.6C512,11.5,500.5,0,486.4,0
		z M298.7,51.2h153.6c4.7,0,8.5,3.8,8.5,8.5v8.5H290.1v-8.5C290.1,55,294,51.2,298.7,51.2z M452.3,187.7H298.7
		c-4.7,0-8.5-3.8-8.5-8.5V85.3h170.7v93.9C460.8,183.9,457,187.7,452.3,187.7z M494.9,145.1c0,4.7-3.8,8.5-8.5,8.5h-8.5V59.7
		c0-14.1-11.5-25.6-25.6-25.6h-128v-8.5c0-4.7,3.8-8.5,8.5-8.5h153.6c4.7,0,8.5,3.8,8.5,8.5V145.1z"/>
	<path class="st0" d="M366.9,119.5H384v17.1h-17.1V119.5z"/>
	<path class="st0" d="M401.1,119.5h17.1v17.1h-17.1V119.5z"/>
	<path class="st0" d="M332.8,119.5h17.1v17.1h-17.1V119.5z"/>
	<path class="st0" d="M51.2,34.1h34.1v17.1H51.2V34.1z"/>
	<path class="st0" d="M102.4,34.1h102.4v17.1H102.4V34.1z"/>
	<path class="st0" d="M59.7,102.4h34.1v17.1H59.7V102.4z"/>
	<path class="st0" d="M110.9,102.4h102.4v17.1H110.9V102.4z"/>
	<path class="st0" d="M68.3,68.3h34.1v17.1H68.3V68.3z"/>
	<path class="st0" d="M119.5,68.3h102.4v17.1H119.5V68.3z"/>
</g>
</svg>
