<?xml version="1.0" encoding="utf-8"?>
<!-- Generator: Adobe Illustrator 22.1.0, SVG Export Plug-In . SVG Version: 6.00 Build 0)  -->
<svg version="1.1" id="Layer_1" xmlns:svgjs="http://svgjs.com/svgjs"
	 xmlns="http://www.w3.org/2000/svg" xmlns:xlink="http://www.w3.org/1999/xlink" x="0px" y="0px" viewBox="0 0 512 512"
	 style="enable-background:new 0 0 512 512;" xml:space="preserve">
<style type="text/css">
	.st0{fill:#96B846;}
</style>
<g>
	<g>
		<g>
			<path class="st0" d="M119.4,495.5c-4.1,0-7.9-2.6-9.4-6.5c-1.5-3.9-0.3-8.6,3-11.3c3.3-2.7,8-3,11.6-0.8
				c3.4,2.1,5.3,6.2,4.6,10.1C128.5,491.9,124.3,495.5,119.4,495.5L119.4,495.5z"/>
			<path class="st0" d="M501.9,337.9c-7.7-7.7-18-12-29-12c-4.8,0-9.4,0.8-13.7,2.4c-1-0.9-1.9-1.7-2.3-2
				c-16.3-13.4-39.9-12.2-54.9,2.8l-47.2,47.2c-4,3.9-20.1,13.2-24.8,13.8h-28.8c-5.1,0-7-3.9-7.5-5c-0.4-1-1.4-4.1,0.4-7.2
				l22.8-6.6c12.3-3.6,21.9-13.1,25.5-25.5c3.5-12.1,0.7-25-7.5-34.4c-0.4-0.4-0.8-0.9-1.2-1.3c-6.6-7-18.8-7.7-42.1-2.5
				c-16.4,3.7-35.3,9.8-48.3,14.3c-28.2,9.8-50.1,31.5-59.9,58.9h-10.2v-7.8c0-5.5-4.5-10-10-10H10c-5.5,0-10,4.5-10,10v112.8
				c0,5.5,4.5,10,10,10h64c5.5,0,10-4.5,10-10s-4.5-10-10-10H20v-92.8h133.2v102.8c0,5.5,4.5,10,10,10c5.5,0,10-4.5,10-10v-7.8h29.9
				c29.4,10,59.8,15.1,90.6,15.1c6.8,0,13.5-0.2,20.3-0.7c38.1-2.7,74.7-13,108.5-30.6c8.1-4.2,11-6.2,12.7-7.9l61.9-57.5
				c0.1-0.1,0.2-0.2,0.3-0.3c7.6-7.6,12.7-17.6,14.1-27.6C513.2,356.6,509.8,345.8,501.9,337.9L501.9,337.9z M416.1,343.1
				c7-7,17.6-8.1,25.7-3.1l-45.1,45.1c-3.1,3.1-7.3,4.9-11.8,4.9h-15.7L416.1,343.1z M421.3,439.3c0,0,0.1-0.1,0.1-0.1
				C421.4,439.2,421.3,439.2,421.3,439.3z M491.8,365.5c-0.8,5.7-3.8,11.5-8.4,16.1L421.5,439c0,0,0,0,0,0c-0.4,0.3-2.2,1.5-8.2,4.7
				c-62.8,32.6-137.4,38-204.6,14.8l-0.7-0.2c-1-0.4-2.1-0.5-3.3-0.5h-31.6v-57.1h17.5c4.5,0,8.5-3.1,9.7-7.4
				c6.5-24.5,24.9-44.1,49.3-52.6c53.5-18.5,67.5-16.9,70-16.3c0,0,0,0.1,0.1,0.1c3.8,4.3,5,10,3.4,15.6
				c-1.7,5.8-6.1,10.2-11.9,11.9l-25.8,7.5c-1.6,0.5-3.1,1.3-4.3,2.5c-8.2,8.2-10.5,20-6.1,30.7c4.4,10.7,14.4,17.4,26,17.4h83.8
				c9.8,0,19-3.8,25.9-10.7l47.2-47.2c4-4,9.2-6.1,14.8-6.1c5.6,0,10.9,2.2,14.8,6.1C491.2,355.5,492.6,360,491.8,365.5L491.8,365.5
				z"/>
			<path class="st0" d="M389.3,141.1c-0.5-0.2-1-0.3-1.4-0.5v-15.8c0.1,0.2,0.3,0.3,0.4,0.5c3.2,4.5,9.4,5.6,13.9,2.4
				c4.5-3.2,5.6-9.4,2.4-13.9c-3.4-4.8-9.2-8.9-16.8-10.7c-0.5-5.1-4.7-9.1-10-9.1c-5.4,0-9.9,4.3-10,9.7c-0.4,0.1-0.8,0.2-1.2,0.3
				c-10,3-17.6,12.7-18.4,23.6c-0.8,10.8,4.9,20.2,15.3,25.1c1,0.5,2.5,1.1,4.3,1.8v20.9c-1.6-0.8-3-1.9-4-3.1
				c-3.5-4.3-9.8-5-14.1-1.5c-4.3,3.5-5,9.8-1.5,14.1c5.1,6.3,12.4,10,19.6,11.8c0.7,4.9,4.8,8.6,9.9,8.6c4.8,0,8.8-3.4,9.8-7.9
				c13.1-2.5,22.3-11.4,23.8-23.4C413.2,159.8,404.1,146.3,389.3,141.1L389.3,141.1z M391.6,171.4c-0.3,2.5-1.9,4-3.8,5v-13.4
				C390.7,165.5,392,168.7,391.6,171.4z"/>
			<path class="st0" d="M378.9,238.1c-48.8,0-88.6-39.7-88.6-88.6c0-48.8,39.7-88.6,88.6-88.6s88.6,39.7,88.6,88.6
				C467.5,198.4,427.7,238.1,378.9,238.1L378.9,238.1z M378.9,81c-37.8,0-68.6,30.8-68.6,68.6s30.8,68.6,68.6,68.6
				c37.8,0,68.6-30.8,68.6-68.6S416.7,81,378.9,81L378.9,81z"/>
			<path class="st0" d="M378.9,282.7c-73.4,0-133.1-59.7-133.1-133.1S305.5,16.4,378.9,16.4c73.4,0,133.1,59.7,133.1,133.1
				C512,222.9,452.3,282.7,378.9,282.7z M378.9,36.4c-62.4,0-113.1,50.7-113.1,113.1s50.7,113.1,113.1,113.1
				c62.4,0,113.1-50.7,113.1-113.1S441.3,36.4,378.9,36.4z"/>
		</g>
	</g>
</g>
</svg>
