<svg width="393" height="88" viewBox="0 0 393 88" fill="none" xmlns="http://www.w3.org/2000/svg">
<path fill-rule="evenodd" clip-rule="evenodd" d="M87.6741 79.4992L92.813 68.2138C93.3422 67.08 93.846 65.8963 95.7603 65.8963C95.7603 65.8963 95.0298 67.0554 94.5006 68.2138L86.843 85.0406L79.1848 68.2138C78.6555 67.0554 77.925 65.8963 77.925 65.8963C81.4269 65.8963 81.9808 67.08 82.51 68.2138L87.6741 79.4992Z" fill="white"/>
<path fill-rule="evenodd" clip-rule="evenodd" d="M101.553 83.7813H98.5303V68.6667C98.5303 67.4077 98.5303 65.8954 101.805 65.8954C101.805 65.8954 101.553 67.4077 101.553 68.6667V83.7813Z" fill="white"/>
<path fill-rule="evenodd" clip-rule="evenodd" d="M111.604 67.3822C109.186 67.3822 108.027 68.6666 108.027 70.0783C108.027 70.7828 108.379 71.438 109.059 71.7659L115.357 74.8385C117.247 75.7703 118.129 77.3079 118.129 78.8436C118.129 81.363 115.785 83.9071 111.579 83.9071C109.563 83.9071 107.8 83.8065 105.457 83.7812L106.792 81.8922C108.304 82.2448 110.118 82.4715 111.553 82.4715C114.349 82.4715 115.66 81.0605 115.66 79.7507C115.66 79.0209 115.257 78.3151 114.451 77.9378L108.279 74.8885C106.591 74.058 105.709 72.4457 105.709 70.8081C105.709 68.4153 107.598 66.0225 111.604 66.0225C113.392 66.0225 115.206 66.1232 117.272 66.1485C117.272 66.3238 117.247 67.8355 115.433 67.8355C113.922 67.5835 112.738 67.3822 111.604 67.3822Z" fill="white"/>
<path fill-rule="evenodd" clip-rule="evenodd" d="M124.299 74.2088H132.487V68.6667C132.487 67.4077 132.487 65.8954 135.76 65.8954C135.76 65.8954 135.509 67.4077 135.509 68.6667V81.2884C135.509 82.5469 135.76 84.0338 135.76 84.0338C132.487 84.0338 132.487 82.5222 132.487 81.2631V75.7211H124.299V81.2631C124.299 82.5222 124.299 84.0338 121.024 84.0338C121.024 84.0338 121.276 82.5469 121.276 81.2884V68.6667C121.276 67.4077 121.024 65.8954 121.024 65.8954C124.299 65.8954 124.299 67.4077 124.299 68.6667V74.2088Z" fill="white"/>
<path fill-rule="evenodd" clip-rule="evenodd" d="M151.807 64.8879L158.558 78.9947L162.311 68.3138C162.714 67.1301 163.218 65.8957 164.981 65.8957C164.981 65.8957 164.377 67.1048 163.949 68.3138L158.104 85.0406L151.076 70.2034L144.401 85.0406L138.556 68.3138C138.128 67.1048 137.523 65.8957 137.523 65.8957C140.874 65.8957 141.277 67.1301 141.705 68.3138L145.459 79.02L151.807 64.8879Z" fill="white"/>
<path fill-rule="evenodd" clip-rule="evenodd" d="M169.339 75.7202H174.176L171.757 70.4314L169.339 75.7202ZM174.856 77.2325H168.659L166.618 81.7168C166.09 82.8499 165.586 84.033 163.671 84.033C163.671 84.033 164.401 82.8746 164.931 81.7168L172.589 64.8887L180.246 81.7168C180.776 82.8746 181.506 84.033 181.506 84.033C178.004 84.033 177.45 82.8499 176.922 81.7168L174.856 77.2325Z" fill="white"/>
<path fill-rule="evenodd" clip-rule="evenodd" d="M200.071 79.4992L205.209 68.2138C205.739 67.08 206.243 65.8963 208.157 65.8963C208.157 65.8963 207.426 67.0554 206.898 68.2138L199.239 85.0406L191.581 68.2138C191.053 67.0554 190.322 65.8963 190.322 65.8963C193.823 65.8963 194.378 67.08 194.906 68.2138L200.071 79.4992Z" fill="white"/>
<path fill-rule="evenodd" clip-rule="evenodd" d="M213.95 83.7813H210.927V68.6667C210.927 67.4077 210.927 65.8954 214.202 65.8954C214.202 65.8954 213.95 67.4077 213.95 68.6667V83.7813Z" fill="white"/>
<path fill-rule="evenodd" clip-rule="evenodd" d="M221.759 67.4575V82.472C222.842 82.4974 223.8 82.5467 224.756 82.5467C228.636 82.5467 230.298 79.2721 230.298 74.9638C230.298 70.7074 228.334 67.3822 224.756 67.3822C223.673 67.3822 222.716 67.4575 221.759 67.4575ZM224.731 66.0212C229.946 66.0212 233.448 69.9509 233.448 74.9638C233.448 79.9773 229.946 83.9071 224.731 83.9071C222.363 83.9071 220.424 83.7811 218.484 83.7811C218.484 83.7811 218.736 82.4214 218.736 81.2629V68.6666C218.736 67.4075 218.484 66.1484 218.484 66.1484C220.575 66.1231 222.641 66.0212 224.731 66.0212Z" fill="white"/>
<path fill-rule="evenodd" clip-rule="evenodd" d="M244.279 73.755C243.775 74.4355 243.599 75.7711 243.599 76.6017V83.7813H240.576V76.6017C240.576 75.7711 240.399 74.8387 239.895 74.1588L235.79 68.7168C235.059 67.7344 233.17 65.8954 233.17 65.8954C237.327 65.8954 238.158 67.0045 238.989 68.1123L242.767 73.1004L246.571 68.0123C247.352 66.9539 248.158 65.8954 250.627 65.8954C250.627 65.8954 249.116 67.3324 248.385 68.3136L244.279 73.755Z" fill="white"/>
<path fill-rule="evenodd" clip-rule="evenodd" d="M255.035 75.7202H259.872L257.453 70.4314L255.035 75.7202ZM260.552 77.2325H254.355L252.315 81.7168C251.785 82.8499 251.282 84.033 249.367 84.033C249.367 84.033 250.098 82.8746 250.626 81.7168L258.285 64.8887L265.942 81.7168C266.471 82.8746 267.203 84.033 267.203 84.033C263.701 84.033 263.146 82.8499 262.618 81.7168L260.552 77.2325Z" fill="white"/>
<path fill-rule="evenodd" clip-rule="evenodd" d="M272.24 67.4075V74.6372C273.223 74.6872 274.306 74.7125 275.011 74.7125C276.85 74.7125 278.387 73.3528 278.387 70.9087C278.387 68.5406 276.85 67.3568 275.011 67.3568C274.104 67.3568 273.198 67.4075 272.24 67.4075ZM281.459 70.9087C281.459 73.9073 278.739 75.8962 275.515 75.8962C274.432 75.8962 273.323 75.8209 272.24 75.8209V81.2629C272.24 82.522 272.24 84.0337 268.966 84.0337C268.966 84.0337 269.217 82.522 269.217 81.2629V68.6666C269.217 67.4075 268.966 66.1484 268.966 66.1484H272.618C273.173 66.1484 273.6 66.1484 274.054 66.1231C274.507 66.1231 274.986 66.0978 275.515 66.0978C278.739 66.0978 281.459 67.886 281.459 70.9087Z" fill="white"/>
<path fill-rule="evenodd" clip-rule="evenodd" d="M287.379 82.2698H294.181C295.944 82.2698 295.944 83.7821 295.944 83.7821H284.105C284.105 83.7821 284.357 82.5464 284.357 81.2874V68.6676C284.357 67.4072 284.105 66.1475 284.105 66.1475H295.944C295.944 66.1475 295.944 67.6592 294.181 67.6592H287.379V74.2096H293.677V75.72H287.379V82.2698Z" fill="white"/>
<path fill-rule="evenodd" clip-rule="evenodd" d="M302.241 82.2698H309.042C310.806 82.2698 310.806 83.7821 310.806 83.7821H298.966C298.966 83.7821 299.219 82.5464 299.219 81.2874V68.6676C299.219 67.4072 298.966 66.1475 298.966 66.1475H310.806C310.806 66.1475 310.806 67.6592 309.042 67.6592H302.241V74.2096H308.539V75.72H302.241V82.2698Z" fill="white"/>
<path fill-rule="evenodd" clip-rule="evenodd" d="M312.065 66.1476H328.942C328.942 66.2483 328.918 67.7099 327.683 67.7099C326.096 67.6852 325.265 67.6099 323.426 67.6099H322.141V83.7809H318.866V67.6099H317.582C315.743 67.6099 314.912 67.6852 313.325 67.7099C312.09 67.7099 312.065 66.2483 312.065 66.1476Z" fill="white"/>
<path fill-rule="evenodd" clip-rule="evenodd" d="M333.98 74.2088H342.168V68.6667C342.168 67.4077 342.168 65.8954 345.441 65.8954C345.441 65.8954 345.19 67.4077 345.19 68.6667V81.2884C345.19 82.5469 345.441 84.0338 345.441 84.0338C342.168 84.0338 342.168 82.5222 342.168 81.2631V75.7211H333.98V81.2631C333.98 82.5222 333.98 84.0338 330.706 84.0338C330.706 84.0338 330.957 82.5469 330.957 81.2884V68.6667C330.957 67.4077 330.706 65.8954 330.706 65.8954C333.98 65.8954 333.98 67.4077 333.98 68.6667V74.2088Z" fill="white"/>
<path fill-rule="evenodd" clip-rule="evenodd" d="M352.873 75.7202H357.71L355.291 70.4314L352.873 75.7202ZM358.39 77.2325H352.193L350.152 81.7168C349.623 82.8499 349.119 84.033 347.205 84.033C347.205 84.033 347.936 82.8746 348.465 81.7168L356.123 64.8887L363.78 81.7168C364.309 82.8746 365.04 84.033 365.04 84.033C361.538 84.033 360.984 82.8499 360.455 81.7168L358.39 77.2325Z" fill="white"/>
<path fill-rule="evenodd" clip-rule="evenodd" d="M378.718 85.0405L371.967 70.9338L368.213 81.6146C367.81 82.799 367.307 84.0328 365.544 84.0328C365.544 84.0328 366.148 82.8237 366.576 81.6146L372.421 64.8878L379.448 79.7257L386.124 64.8878L391.969 81.6146C392.396 82.8237 393 84.0328 393 84.0328C389.651 84.0328 389.248 82.799 388.82 81.6146L385.066 70.9097L378.718 85.0405Z" fill="white"/>
<path fill-rule="evenodd" clip-rule="evenodd" d="M95.7172 34.6171L102.598 19.5027L109.515 34.6171H95.7172ZM105.076 0.828735L82.2536 50.9774C81.2047 53.2753 79.1689 56.729 77.925 58.7819L78.4998 58.7806C83.1462 58.7806 85.2934 56.5961 86.7417 54.0754C87.2076 53.2658 87.6007 52.4207 87.9818 51.6028L88.1014 51.3465L93.7517 38.9343H111.491L117.175 51.3566C118.799 54.8363 120.639 58.7806 131.651 58.7806L132.233 58.7895C132.233 58.7895 129.474 54.4299 127.897 50.9774L105.076 0.828735Z" fill="white"/>
<path fill-rule="evenodd" clip-rule="evenodd" d="M197.943 0.828003L178.048 45.0463L157.103 0.828003L139.686 50.6764C138.41 54.2802 136.169 58.7803 136.169 58.7803H136.609C142.755 58.7803 144.357 54.0776 145.413 50.9739L155.879 21.1896L175.897 63.0183L194.686 21.189L205.179 51.1144C206.477 54.7074 207.948 58.7803 218.437 58.7803H218.859C218.859 58.7803 216.636 54.2802 215.36 50.6764L197.943 0.828003Z" fill="white"/>
<path fill-rule="evenodd" clip-rule="evenodd" d="M276.082 11.4513V58.6225H286.885V11.4513C286.885 7.81782 287.617 3.38481 287.623 3.3405L287.797 2.29602H286.738C276.082 2.29602 276.082 7.5874 276.082 11.4513Z" fill="white"/>
<path fill-rule="evenodd" clip-rule="evenodd" d="M342.154 7.85514C345.825 7.85514 346.805 4.36596 346.805 2.30359H294.743H294.712C294.712 4.36596 295.692 7.85514 299.376 7.85514C301.322 7.82412 302.903 7.76715 304.432 7.71271C306.693 7.63105 308.829 7.55509 312.05 7.55509H314.981V58.5768H326.535V7.55509H329.466C332.687 7.55509 334.823 7.63105 337.084 7.71271C338.613 7.76715 340.194 7.82412 342.154 7.85514Z" fill="white"/>
<path fill-rule="evenodd" clip-rule="evenodd" d="M262.942 52.7143L248.599 33.5181C257.308 32.016 264.262 25.682 263.753 16.4047C263.272 7.63489 255.356 2.30426 245.746 2.30426C238.614 2.30426 232.009 2.60494 225.477 2.60494C225.477 2.60494 226.227 6.3581 226.227 10.1119L225.931 50.5368C225.931 54.2912 225.182 58.7951 225.182 58.7951C234.941 58.7951 234.941 54.2912 234.941 50.5368L235.236 6.58282C239.216 6.58282 241.693 6.42203 244.244 6.43343C249.936 6.45748 254.406 10.5069 255.048 16.5547C255.758 23.2318 253.436 28.1989 248.585 30.3929C245.022 31.8438 237.28 31.633 237.28 31.633L253.125 52.9258C255.378 55.9282 258.438 58.7951 268.272 58.7951C268.272 58.7951 265.569 56.2428 262.942 52.7143Z" fill="white"/>
<path fill-rule="evenodd" clip-rule="evenodd" d="M356.419 34.6171L363.299 19.5027L370.217 34.6171H356.419ZM388.599 50.9774L365.777 0.828735L342.955 50.9774C341.906 53.2753 339.87 56.729 338.627 58.7819L339.202 58.7806C343.848 58.7806 345.995 56.5961 347.443 54.0754C347.91 53.2658 348.303 52.4207 348.683 51.6028L348.803 51.3465L354.454 38.9343H372.192L377.877 51.3566C379.501 54.8363 381.34 58.7806 392.353 58.7806L392.935 58.7895C392.935 58.7895 390.175 54.4299 388.599 50.9774Z" fill="white"/>
<path fill-rule="evenodd" clip-rule="evenodd" d="M44.1717 43.3381L43.095 43.6932C43.4273 43.8881 43.8698 44.042 44.53 44.042C44.5674 44.042 44.606 44.042 44.6471 44.0407C44.7547 44.0413 44.8434 44.0515 44.9187 44.0705H60.2111C60.3782 43.647 60.5333 43.2171 60.6783 42.7829H45.4928C45.0953 42.9962 44.6579 43.1842 44.1717 43.3381Z" fill="white"/>
<path fill-rule="evenodd" clip-rule="evenodd" d="M27.1696 44.0407C27.2164 44.042 27.255 44.042 27.2924 44.042C27.9533 44.042 28.3957 43.8881 28.7274 43.6932L27.6488 43.3374C27.1639 43.1836 26.7271 42.9956 26.3296 42.7829H11.0492C11.1942 43.2171 11.3492 43.647 11.5164 44.0705H26.9031C26.9765 44.0515 27.0639 44.0413 27.1696 44.0407Z" fill="white"/>
<path fill-rule="evenodd" clip-rule="evenodd" d="M44.9994 45.2143C44.4044 45.5909 43.1877 45.9657 41.9793 45.9758L41.9451 45.9764C41.8369 45.9764 41.7343 45.9574 41.6413 45.9207C41.2672 46.141 40.4126 46.3904 39.646 46.4784H59.1182C59.3366 46.0556 59.5436 45.6264 59.7386 45.1909H45.0279C45.0178 45.1991 45.0057 45.2092 44.9994 45.2143Z" fill="white"/>
<path fill-rule="evenodd" clip-rule="evenodd" d="M30.1817 45.9208C30.0892 45.9576 29.9873 45.9766 29.881 45.9766L29.8424 45.9759C28.6352 45.9658 27.4185 45.591 26.8406 45.2264C26.8298 45.2182 26.814 45.2049 26.7969 45.191H11.9888C12.1844 45.6265 12.3907 46.0557 12.6091 46.4785H32.1769C31.4103 46.3905 30.5558 46.1411 30.1817 45.9208Z" fill="white"/>
<path fill-rule="evenodd" clip-rule="evenodd" d="M35.8627 5.90864C51.5862 5.90864 64.3758 18.7576 64.3758 34.5503C64.3758 50.3415 51.5862 63.1898 35.8627 63.1898C20.1411 63.1898 7.35168 50.3415 7.35168 34.5503C7.35168 18.7576 20.1411 5.90864 35.8627 5.90864ZM6.78894 34.5478C6.11667 34.7237 5.59127 35.0941 5.22602 35.653C3.91884 37.6508 4.87913 41.7046 5.65077 44.9628C5.92677 46.1282 6.18694 47.229 6.29518 48.0475C6.31418 48.1918 6.33443 48.3412 6.35595 48.4925C6.49648 49.5015 6.65537 50.646 6.43445 51.3575L6.36608 51.5803L6.5927 51.6322C7.32004 51.7968 8.23158 52.5071 9.03488 53.1325C9.15515 53.2268 9.27416 53.3192 9.39 53.4079C10.0452 53.9105 10.8681 54.6865 11.7398 55.5082C14.1205 57.7548 17.071 60.5362 19.4296 60.5362C19.4841 60.5362 19.5379 60.535 19.5911 60.5325C20.2665 60.4938 20.8558 60.2166 21.3489 59.7108C21.1654 60.3812 21.2236 61.0211 21.5237 61.6168C22.6011 63.7475 26.5929 64.9439 29.8003 65.9049C30.948 66.2492 32.0317 66.574 32.7951 66.8898C32.93 66.9455 33.0692 67.0019 33.211 67.0601C34.1549 67.4431 35.2253 67.8767 35.7311 68.4236L35.8893 68.5945L36.0476 68.4243C36.5553 67.8767 37.6257 67.4431 38.5695 67.0601C38.7113 67.0025 38.8518 66.9455 38.9867 66.8898C39.7488 66.574 40.8332 66.2492 41.9802 65.9049C45.1877 64.9439 49.1801 63.7475 50.2569 61.6168C50.562 61.0142 50.6158 60.3647 50.4247 59.6855C50.9133 60.1786 51.497 60.4483 52.1629 60.4856C52.2167 60.4881 52.2705 60.49 52.325 60.49C54.683 60.49 57.6334 57.7079 60.0149 55.462C60.8865 54.6397 61.7094 53.8636 62.3646 53.361C62.4805 53.2724 62.5988 53.1793 62.721 53.085C63.5244 52.4602 64.4353 51.7506 65.1613 51.5854L65.3886 51.5341L65.3196 51.3119C65.0993 50.6004 65.2582 49.4578 65.3981 48.4501C65.4196 48.2969 65.4405 48.1475 65.4595 48.0013C65.5671 47.1821 65.8273 46.082 66.1033 44.9159C66.8749 41.6584 67.8352 37.6046 66.528 35.6068C66.1577 35.0402 65.6234 34.6687 64.9385 34.4952C65.6108 34.3186 66.1362 33.9483 66.5014 33.39C67.808 31.3915 66.8483 27.3364 66.0767 24.0781C65.8007 22.9121 65.5399 21.8113 65.4323 20.9928C65.4133 20.8478 65.3924 20.6978 65.3715 20.5453C65.2316 19.5369 65.0721 18.3943 65.293 17.6834L65.362 17.4606L65.1348 17.4087C64.408 17.2441 63.4984 16.5351 62.695 15.909C62.5735 15.8147 62.4545 15.7217 62.338 15.6324C61.6829 15.1304 60.8593 14.3537 59.9876 13.5321C57.6062 11.2868 54.6564 8.50401 52.2984 8.50401C52.2439 8.50401 52.1895 8.50591 52.1363 8.50845C51.4615 8.54643 50.8716 8.82369 50.3791 9.32947C50.562 8.6591 50.5044 8.01912 50.2031 7.42346C49.1263 5.29209 45.1339 4.09632 41.9264 3.13477C40.7794 2.79168 39.6957 2.46631 38.9329 2.15043C38.7974 2.09472 38.6581 2.03775 38.5157 1.98015C37.5719 1.59717 36.5015 1.16356 35.9944 0.616631L35.8362 0.44635L35.6779 0.616631C35.1715 1.16356 34.1017 1.59781 33.1579 1.98015C33.0161 2.03839 32.8762 2.09472 32.7413 2.15043C31.9786 2.46631 30.8948 2.79168 29.7472 3.13477C26.5397 4.09632 22.5479 5.29209 21.4711 7.42346C21.166 8.02672 21.1116 8.67556 21.3027 9.35479C20.814 8.86167 20.231 8.592 19.5645 8.55529C17.1793 8.41539 14.149 11.2811 11.7132 13.5783C10.8415 14.4006 10.0186 15.1766 9.36278 15.6793C9.24694 15.7679 9.12857 15.8609 9.00639 15.9552C8.2031 16.5813 7.29282 17.2896 6.56675 17.4549L6.3395 17.5068L6.40786 17.729C6.62878 18.4411 6.46926 19.5843 6.32873 20.5934C6.30784 20.7453 6.28759 20.8947 6.2686 21.039C6.16035 21.8575 5.89955 22.9589 5.62419 24.125C4.85254 27.3833 3.89289 31.4384 5.19943 33.4362C5.56911 34.0021 6.10465 34.3737 6.78894 34.5478Z" fill="white"/>
<path fill-rule="evenodd" clip-rule="evenodd" d="M25.4739 58.5184H46.2545C47.1363 58.1354 47.9934 57.7056 48.8221 57.2314H22.9064C23.735 57.7056 24.5921 58.1354 25.4739 58.5184Z" fill="white"/>
<path fill-rule="evenodd" clip-rule="evenodd" d="M35.8638 60.6736C38.3914 60.6736 40.8361 60.3122 43.1498 59.6399H28.5778C30.8914 60.3122 33.3361 60.6736 35.8638 60.6736Z" fill="white"/>
<path fill-rule="evenodd" clip-rule="evenodd" d="M42.1931 34.5611C42.0184 34.4079 41.4835 34.2452 40.8366 34.2452C40.5447 34.2452 40.2637 34.2775 40.0016 34.3421C39.0223 34.5826 38.2178 35.6012 38.2266 36.1133C38.5317 36.4912 38.8983 36.8887 39.2604 37.2343C40.0459 37.9838 40.7549 38.7416 40.8043 39.7677C40.8271 40.2399 40.7549 40.6836 40.5834 41.1242C40.2282 42.0402 39.4091 42.5719 38.647 42.877C40.86 42.7796 42.4653 42.2738 43.3091 41.4047C43.8636 40.833 44.115 40.0835 44.0548 39.1771C44.0137 38.546 43.5541 37.9256 43.1085 37.3236C42.4805 36.4754 41.831 35.5986 42.214 34.5807C42.2089 34.5757 42.202 34.5687 42.1931 34.5611Z" fill="white"/>
<path fill-rule="evenodd" clip-rule="evenodd" d="M45.2009 35.1323C44.854 35.1323 44.3362 35.1684 43.843 35.3419C43.2607 35.5457 42.9062 35.7622 42.7625 36.0008C42.941 36.3578 43.2062 36.7149 43.4632 37.0624C43.9456 37.7144 44.4444 38.3879 44.4944 39.1475C44.5628 40.1844 44.2703 41.0472 43.6253 41.7119C42.8441 42.5171 41.5591 43.0267 39.7955 43.2311C39.9228 43.2343 40.0481 43.2356 40.1728 43.2356C42.7865 43.2356 44.8989 42.6443 46.1206 41.5707C46.8822 40.9016 47.2455 40.0952 47.1993 39.1735C47.1683 38.5506 46.8214 38.0664 46.4865 37.5973C46.0263 36.9541 45.5066 36.2274 46.0896 35.2342C45.9364 35.1849 45.618 35.1323 45.2009 35.1323Z" fill="white"/>
<path fill-rule="evenodd" clip-rule="evenodd" d="M40.1727 40.9652C40.3228 40.5778 40.3835 40.2037 40.3639 39.789C40.3221 38.925 39.6746 38.2381 38.9561 37.5532C38.7067 37.3152 37.4394 36.0713 37.0032 34.9984L36.9342 34.8274C36.6247 34.0602 36.4095 33.5893 35.9119 33.5867C35.4137 33.5893 35.1757 34.0988 34.8668 34.8661C34.8377 34.8939 34.0053 36.4695 32.781 37.6355C32.0948 38.29 31.4991 38.9591 31.4593 39.789C31.4396 40.2037 31.5004 40.5778 31.6504 40.9652C32.1733 42.3116 34.1325 42.9142 35.8423 42.9136H35.9809C37.6907 42.9142 39.6499 42.3116 40.1727 40.9652Z" fill="white"/>
<path fill-rule="evenodd" clip-rule="evenodd" d="M27.7684 39.1768C27.7082 40.0839 27.9595 40.8334 28.5141 41.405C29.3572 42.2741 30.9632 42.7799 33.1762 42.8767C32.4141 42.5716 31.5949 42.0405 31.2398 41.1246C31.0683 40.6833 30.9961 40.2402 31.0189 39.768C31.0676 38.7419 31.7773 37.9842 32.5628 37.234C32.9249 36.889 33.2914 36.4915 33.5965 36.113C33.6054 35.6009 32.8008 34.583 31.8216 34.3418C31.5595 34.2779 31.2784 34.2449 30.9866 34.2449C30.3397 34.2449 29.8048 34.4076 29.6301 34.5608C29.6212 34.569 29.6142 34.5754 29.6092 34.5811C29.9921 35.5983 29.3427 36.4751 28.7147 37.3233C28.2691 37.9253 27.8095 38.5463 27.7684 39.1768Z" fill="white"/>
<path fill-rule="evenodd" clip-rule="evenodd" d="M24.6238 39.1734C24.5776 40.0951 24.9409 40.9015 25.7024 41.5706C26.9242 42.6442 29.0372 43.2354 31.6509 43.2354C31.775 43.2354 31.9009 43.2342 32.0275 43.231C30.2646 43.0265 28.9789 42.517 28.1978 41.7118C27.5528 41.0471 27.2603 40.1843 27.3287 39.1474C27.3787 38.3878 27.8775 37.7143 28.3598 37.0623C28.6169 36.7154 28.8821 36.3577 29.0606 36.0007C28.9169 35.7621 28.563 35.5456 27.98 35.3417C27.4869 35.1683 26.9697 35.1322 26.6222 35.1322C26.2051 35.1322 25.8867 35.1847 25.7341 35.2341C26.3165 36.2273 25.7968 36.954 25.3372 37.5972C25.0017 38.0662 24.6554 38.5505 24.6238 39.1734Z" fill="white"/>
<path fill-rule="evenodd" clip-rule="evenodd" d="M30.6973 44.3342C30.7929 44.2728 30.8733 44.2216 30.9518 44.1671C31.1183 44.0525 31.2183 43.9437 31.3158 43.8379C31.3645 43.7841 31.417 43.7297 31.4753 43.6759C30.9727 43.6702 30.4732 43.6411 29.989 43.5892H29.9877C29.9364 43.5968 29.9111 43.6158 29.8934 43.6303C29.8294 43.6791 29.7706 43.7291 29.7079 43.7822C29.2933 44.1336 28.6242 44.7014 27.2778 44.7014L27.2322 44.7007C27.6873 44.9559 28.7445 45.3065 29.8541 45.3167H29.856C29.9687 45.3167 29.9782 45.2762 29.9826 45.2426C29.9738 45.1742 29.9757 45.1116 29.9883 45.0527C30.0561 44.7438 30.3529 44.5539 30.6973 44.3342Z" fill="white"/>
<path fill-rule="evenodd" clip-rule="evenodd" d="M32.3663 45.8855C32.6455 45.8855 32.8955 45.8532 33.0886 45.7912C33.2279 45.7469 33.3235 45.6899 33.3684 45.6247C33.3178 45.5665 33.276 45.512 33.2393 45.455C32.931 44.9784 32.7658 44.2105 33.3165 43.6161C33.3222 43.6098 33.3279 43.6041 33.3336 43.5978C33.1639 43.6123 32.9956 43.625 32.8278 43.6351C32.0049 43.7389 31.8435 43.9143 31.6396 44.1365C31.5314 44.2542 31.4086 44.3871 31.2022 44.5296C31.1199 44.5865 31.0364 44.6404 30.9547 44.6923C30.6952 44.8581 30.4477 45.0164 30.4192 45.1468C30.4103 45.1873 30.4255 45.2379 30.466 45.3012C30.6699 45.6177 31.5403 45.8855 32.3663 45.8855Z" fill="white"/>
<path fill-rule="evenodd" clip-rule="evenodd" d="M35.9133 43.3881H35.9101H35.8854C34.6865 43.3881 33.9731 43.5559 33.6401 43.9154C33.2616 44.3244 33.3768 44.8555 33.6097 45.2163C33.661 45.2948 33.7199 45.3638 33.7895 45.4277L33.8408 45.4707C34.0187 45.6144 34.2333 45.6942 34.4599 45.7778C34.9619 45.9639 35.5259 46.1734 35.9114 47.0508C36.2975 46.1734 36.8615 45.9639 37.3635 45.7778C37.5901 45.6942 37.8047 45.6144 37.9826 45.4707L38.0339 45.4277C38.1035 45.3638 38.1624 45.2948 38.2137 45.2163C38.4466 44.8555 38.5618 44.3244 38.1833 43.9154C37.8503 43.5559 37.1369 43.3881 35.938 43.3881H35.9133Z" fill="white"/>
<path fill-rule="evenodd" clip-rule="evenodd" d="M38.4543 45.6247C38.4993 45.6899 38.5949 45.7469 38.7341 45.7912C38.9272 45.8532 39.1773 45.8855 39.4564 45.8855C40.2825 45.8855 41.1529 45.6184 41.3567 45.3012C41.3972 45.2379 41.4124 45.1879 41.4036 45.1468C41.3751 45.0164 41.1276 44.8581 40.868 44.6929C40.7864 44.6404 40.7028 44.5865 40.6205 44.5296C40.4142 44.3871 40.2914 44.2542 40.1831 44.1365C39.9793 43.9143 39.8179 43.7389 38.9949 43.6351C38.8272 43.625 38.6594 43.613 38.4892 43.5978C38.4949 43.6041 38.5012 43.6098 38.5063 43.6161C39.057 44.2105 38.8918 44.9784 38.5835 45.4557C38.5468 45.512 38.505 45.5665 38.4543 45.6247Z" fill="white"/>
<path fill-rule="evenodd" clip-rule="evenodd" d="M41.9675 45.3166H41.9694C43.0785 45.3064 44.1362 44.9557 44.5914 44.7013L44.5452 44.7019C43.1994 44.7019 42.5303 44.1341 42.1156 43.7821C42.053 43.7289 41.9941 43.6796 41.9302 43.6302C41.9118 43.6163 41.8871 43.5966 41.8359 43.5897L41.8346 43.5891C41.3497 43.641 40.8509 43.6707 40.3483 43.6764C40.4065 43.7296 40.459 43.7847 40.5078 43.8378C40.6046 43.9435 40.7053 44.0524 40.8711 44.167C40.9503 44.2214 41.0307 44.2733 41.1262 44.3341C41.47 44.5544 41.7675 44.7437 41.8346 45.0526C41.8479 45.1121 41.8498 45.1741 41.8409 45.2425C41.8454 45.2767 41.8542 45.3166 41.9675 45.3166Z" fill="white"/>
<path fill-rule="evenodd" clip-rule="evenodd" d="M30.3879 53.7148C30.5202 53.7705 32.337 54.2984 32.6763 54.3453C33.2631 54.4257 33.8904 54.4073 34.3569 54.0016C34.3911 53.9718 34.4228 53.9414 34.4519 53.9104C34.5411 53.8154 34.6076 53.7135 34.6494 53.6078C34.8906 52.9989 34.3088 52.2481 32.475 51.8044C30.2176 51.2581 26.7848 51.1789 24.3799 51.8822C23.0158 52.281 22.4518 52.8514 22.4644 53.4198C22.4676 53.573 22.5132 53.7262 22.5961 53.8762V53.8769C22.748 54.149 23.024 54.4099 23.3988 54.6377C23.5773 54.746 23.7805 54.8447 24.0046 54.9346C24.0058 54.9346 24.0065 54.9353 24.0071 54.9359C24.3996 55.0929 24.8553 55.222 25.3485 55.3252C26.6993 55.6075 28.3338 55.6936 29.7327 55.6145C31.766 55.4986 31.6166 54.8789 31.1773 54.6156C31.083 54.5592 30.5708 54.2908 30.2119 54.0186C29.948 53.818 30.1201 53.6028 30.3879 53.7148Z" fill="white"/>
<path fill-rule="evenodd" clip-rule="evenodd" d="M31.9199 54.7012C31.9351 54.7411 31.9465 54.7822 31.9553 54.8233C31.98 54.9379 31.9794 55.0569 31.9503 55.1753C31.7876 55.8374 30.8906 56.0375 30.1006 56.1103H50.6065C51.199 55.7045 51.7738 55.2753 52.3296 54.8233H32.4111C32.2794 54.7936 32.1117 54.7518 31.9199 54.7012Z" fill="white"/>
<path fill-rule="evenodd" clip-rule="evenodd" d="M25.2419 55.8355C24.7127 55.7254 24.2411 55.5886 23.8398 55.4297L23.8183 55.424L23.7917 55.4107C23.5442 55.3107 23.3207 55.2006 23.1283 55.0835C22.9922 55.0005 22.8707 54.9132 22.7573 54.8233H19.3986C19.9543 55.2753 20.5291 55.7045 21.1216 56.1102H27.2758C26.551 56.0564 25.856 55.964 25.2419 55.8355Z" fill="white"/>
<path fill-rule="evenodd" clip-rule="evenodd" d="M40.089 48.843C40.0042 48.6025 40.0352 48.3252 40.1713 48.1207C40.2529 47.9973 40.372 47.8935 40.5346 47.8017C40.6764 47.7226 40.8511 47.6561 41.0467 47.5991H13.2231C13.477 48.0365 13.7435 48.4657 14.0214 48.8867H40.1061C40.0998 48.8715 40.0934 48.8563 40.089 48.843Z" fill="white"/>
<path fill-rule="evenodd" clip-rule="evenodd" d="M49.859 48.0128C50.9054 48.2787 51.6992 48.5686 52.2506 48.8864H57.7065C57.9844 48.4655 58.2509 48.0369 58.5048 47.5995H47.7277C48.4892 47.7103 49.2165 47.8495 49.859 48.0128Z" fill="white"/>
<path fill-rule="evenodd" clip-rule="evenodd" d="M53.1892 50.2098C53.1563 50.4757 53.0088 50.7378 52.7505 50.9897L52.6644 51.0682C52.5777 51.1448 52.4764 51.2195 52.3682 51.2948H55.9124C56.2625 50.8764 56.5999 50.4472 56.9246 50.0073H53.1905C53.1961 50.0744 53.1974 50.1415 53.1892 50.2098Z" fill="white"/>
<path fill-rule="evenodd" clip-rule="evenodd" d="M24.5601 51.2947C25.6819 51.0067 27.027 50.8535 28.4804 50.8535C29.9465 50.8535 31.4024 51.0104 32.5843 51.2947H37.5775C37.4667 51.0086 37.4857 50.7604 37.5237 50.6009C37.5775 50.3717 37.6965 50.173 37.8491 50.0078H14.8035C15.1276 50.4471 15.465 50.8762 15.8157 51.2947H24.5601Z" fill="white"/>
<path fill-rule="evenodd" clip-rule="evenodd" d="M21.943 53.4302C21.9367 53.1276 22.026 52.7687 22.3368 52.4155H16.8105C17.2277 52.8592 17.6601 53.2884 18.107 53.7024H21.9785C21.9589 53.6119 21.9449 53.5213 21.943 53.4302Z" fill="white"/>
<path fill-rule="evenodd" clip-rule="evenodd" d="M48.1874 52.8098L48.0101 52.844C46.4453 53.1593 44.8235 53.3264 43.3233 53.3264C41.8186 53.3264 39.9037 53.1536 38.6706 52.4155H34.8364C34.9295 52.5205 35.0124 52.6294 35.0719 52.744C35.2308 53.051 35.2624 53.3871 35.1669 53.7024H53.6206C54.0675 53.2884 54.4998 52.8592 54.917 52.4155H49.7693C49.28 52.5592 48.7508 52.6921 48.1874 52.8098Z" fill="white"/>
<path fill-rule="evenodd" clip-rule="evenodd" d="M42.7411 50.0892C42.4809 50.0892 42.1511 50.0385 41.8017 49.9854C41.4276 49.9284 41.0034 49.8638 40.5698 49.8417C40.4622 49.836 40.3521 49.8335 40.2413 49.8335C39.7153 49.8335 39.2316 49.8942 38.8468 49.9866C38.3144 50.1145 37.4915 50.8077 38.434 51.597C39.2114 52.3826 40.9477 52.815 43.3241 52.815C44.7933 52.815 46.379 52.6516 47.9141 52.3421L48.0831 52.3098C50.0473 51.8984 51.6318 51.2951 52.3199 50.6918L52.3946 50.6235C52.5667 50.4551 52.6642 50.2949 52.6826 50.1468C52.7149 49.8873 52.4921 49.208 49.7334 48.5073C48.0901 48.0901 45.8802 47.8287 43.9653 47.8249H43.8583C42.1353 47.8306 41.1807 48.0256 40.7844 48.2471C40.6933 48.2984 40.6312 48.3509 40.597 48.4035C40.5591 48.4604 40.5344 48.5649 40.5698 48.6693C40.842 49.3264 41.9308 49.4834 42.9253 49.4834C43.4842 49.5112 43.4602 49.7474 43.3564 49.8721C43.1949 50.0664 42.9278 50.0892 42.7411 50.0892Z" fill="white"/>
<path fill-rule="evenodd" clip-rule="evenodd" d="M32.52 20.9788L32.5586 20.9326C33.7481 19.5241 35.1223 17.6998 35.1951 16.0805C35.1939 15.9248 35.1926 15.7646 35.1901 15.6019C35.1793 14.8581 35.1686 14.089 35.299 13.582C35.4154 13.1262 35.592 13.073 35.7142 13.073C35.7351 13.073 35.7547 13.0749 35.7712 13.0768C35.8617 13.0889 35.9155 13.2079 35.9313 13.4307C35.9421 13.5763 35.9225 13.9764 35.9022 14.4087C35.8566 15.3671 35.7946 16.68 35.9301 17.2541C36.0833 17.9023 36.3801 18.548 36.6675 19.1722C37.0435 19.9887 37.3987 20.7604 37.4246 21.482C37.4708 22.774 36.8416 22.8791 36.382 22.9557C36.1725 22.9905 35.9111 23.0336 35.9111 23.2868C35.9111 23.3855 35.9864 23.49 36.1257 23.49C36.1788 23.49 36.2384 23.4748 36.3333 23.4507C36.4783 23.414 36.6979 23.3583 36.9473 23.3583C37.0961 23.3583 37.2385 23.3785 37.3708 23.4178C37.7684 23.5355 38.0766 23.8223 38.1956 24.1844C38.3051 24.517 38.3108 25.0772 37.7196 25.8583C37.5987 26.0178 37.3271 26.2324 36.7182 26.3489C36.5378 26.3818 36.5213 26.4939 36.527 26.5584C36.5352 26.6426 36.6049 26.7275 36.7435 26.7275C36.803 26.7262 36.8612 26.7249 36.9182 26.7249C37.8317 26.7249 38.5216 26.9205 38.8603 27.275C39.0122 27.4345 39.0844 27.6206 39.0749 27.8295C39.0565 28.2328 38.5001 28.386 38.1279 28.4885C37.8696 28.5594 37.6994 28.6056 37.6861 28.7848L37.6823 28.8721L37.8089 28.9924H37.888C37.9386 28.9924 37.995 28.9772 38.1083 28.9455C38.359 28.8765 38.5716 28.8405 38.7229 28.8405C38.7907 28.8405 38.8457 28.8474 38.8888 28.8614C39.0103 28.9012 39.0268 28.9582 39.0281 28.9981C39.0369 29.2025 38.7141 29.5634 37.9842 29.8723L37.9602 29.8849L37.9595 29.883C37.6006 30.0318 36.8131 30.1274 35.9535 30.1274C34.6166 30.1274 33.0568 29.8767 32.7903 29.3266C32.7238 29.1886 32.7498 29.0228 32.8669 28.8322C32.8935 28.8683 32.934 28.9044 32.9948 28.9335C33.874 29.4026 35.0533 29.4722 35.6781 29.4722C36.1092 29.4722 36.4194 29.4393 36.5536 29.4114C36.7251 29.3754 36.9834 29.3216 36.9625 29.1114C36.9492 28.9835 36.8473 28.919 36.6612 28.919C36.6327 28.919 36.5998 28.9202 36.5631 28.9228C36.4321 28.9316 36.232 28.943 36.0054 28.943C35.1616 28.943 34.3279 28.7797 33.3879 28.4328C32.922 28.2929 32.0085 27.7409 31.8142 27.5865C31.1242 27.0376 30.7349 26.1046 30.7349 24.9829C30.6646 23.1747 31.9642 21.6365 32.52 20.9788ZM36.6832 31.1016C36.5395 31.1213 36.3939 31.1352 36.2502 31.1428C36.1515 31.1478 36.0502 31.1504 35.9464 31.1504C35.6995 31.1504 35.4558 31.1339 35.2216 31.1023C34.3436 30.982 33.8188 30.6611 33.8188 30.4205C33.8188 30.4022 33.8214 30.3838 33.827 30.3654C34.4904 30.5034 35.2134 30.5332 35.709 30.5332C36.6642 30.5332 37.541 30.4287 38.0182 30.2597C38.0632 30.3148 38.086 30.3686 38.086 30.4205C38.086 30.6611 37.5612 30.982 36.6832 31.1016ZM35.9528 32.0347C35.5831 32.0347 35.2596 31.8328 35.2596 31.6024C35.2596 31.5631 35.2685 31.5239 35.2869 31.4865C35.3945 31.4986 35.5052 31.5081 35.6179 31.5144C35.7274 31.5201 35.8376 31.5239 35.9591 31.5239C36.1826 31.5233 36.4035 31.5106 36.6181 31.4865C36.6358 31.5245 36.6453 31.5644 36.6453 31.6024C36.6453 31.8328 36.3218 32.0347 35.9528 32.0347ZM30.0101 25.3241C30.0158 25.383 30.0291 25.4982 30.0532 25.659C30.0646 25.7343 30.0785 25.8198 30.095 25.9147C30.1095 25.9957 30.1253 26.0831 30.1443 26.1774C24.8321 28.4405 21.0979 33.7135 21.0979 39.8423C21.0979 40.6583 21.1682 41.4888 21.3074 42.3149H25.5778C25.4701 42.2345 25.3651 42.1522 25.2669 42.0661C24.3592 41.2685 23.9091 40.257 23.9655 39.1397C24.006 38.3244 24.4276 37.7344 24.7998 37.2141C25.2897 36.5298 25.5588 36.1531 25.1049 35.4726C24.9796 35.2834 24.9884 35.046 25.1277 34.8662C25.3935 34.5231 26.1646 34.4718 26.6001 34.4718C27.1685 34.4718 27.7509 34.5617 28.1984 34.7187C28.546 34.8409 28.8302 34.9713 29.0581 35.1137C29.0499 34.996 29.022 34.8814 28.9745 34.7687L28.9695 34.7554L28.9473 34.6757L28.9454 34.6586C28.9201 34.4351 29.0068 34.23 29.1961 34.0648C29.529 33.773 30.2304 33.585 30.9818 33.585C31.3293 33.585 31.6648 33.6242 31.9795 33.7015C32.8581 33.9173 33.5886 34.5738 33.9684 35.215C34.0709 35.0466 34.1513 34.8909 34.2089 34.7504L34.2773 34.5807C34.5096 34.004 34.773 33.3501 35.3186 33.0684C35.4997 32.9792 35.6883 32.9336 35.882 32.9298L35.8915 32.9279L35.9174 32.9298C36.1225 32.9304 36.3175 32.976 36.5011 33.0665C37.0499 33.3495 37.3132 34.0034 37.5462 34.5807L37.6146 34.7504C37.6722 34.8909 37.7519 35.0466 37.8545 35.2156C38.2343 34.5737 38.9648 33.9173 39.844 33.7015C40.1587 33.6242 40.4935 33.585 40.841 33.585C41.5931 33.585 42.2945 33.773 42.6274 34.0648C42.8161 34.2294 42.9028 34.4351 42.8781 34.6586L42.8762 34.6757L42.854 34.7561L42.8483 34.7687C42.8015 34.8814 42.7736 34.996 42.7654 35.1137C42.9933 34.9713 43.2775 34.8409 43.6251 34.7187C44.0726 34.5617 44.655 34.4718 45.2228 34.4718C45.6589 34.4718 46.4299 34.5231 46.6958 34.8662C46.8351 35.046 46.8439 35.2834 46.7186 35.4726C46.2641 36.1531 46.5338 36.5298 47.0224 37.2134C47.3953 37.7344 47.8175 38.3237 47.858 39.1397C47.9144 40.257 47.4637 41.2685 46.5559 42.0661C46.4578 42.1522 46.3534 42.2345 46.2451 42.3149H50.5787C50.718 41.4888 50.7883 40.6583 50.7883 39.8423C50.7883 33.6388 46.9617 28.3151 41.5462 26.0989C41.4335 26.0527 41.3183 26.0116 41.2044 25.9679C41.2209 25.9097 41.2417 25.8539 41.2569 25.7944C41.3316 25.4589 41.3804 25.069 41.3886 25.0044C41.4506 24.2743 41.3563 23.5407 41.1101 22.8602L40.8619 22.2917C40.6505 21.8822 40.3859 21.5163 40.0745 21.2029C39.9953 21.1238 39.9175 21.0504 39.8396 20.9763L39.8289 20.9662L39.513 20.668C39.4301 20.5914 39.3471 20.5161 39.2655 20.442C38.1545 19.4324 37.3525 18.7031 37.6082 16.9661C37.9039 15.3583 37.3854 13.6827 36.7245 13.2592C36.6796 13.2301 36.6328 13.2111 36.5859 13.1934C36.5568 12.9452 36.5327 12.7965 36.5125 12.7939C36.3327 12.4629 36.0422 12.3692 35.856 12.3432C35.8092 12.3382 35.7643 12.3356 35.7199 12.3356C35.3977 12.3356 34.8211 12.4743 34.5837 13.3991C34.4292 14.0024 34.4406 14.8215 34.452 15.6147C34.4545 15.7742 34.4564 15.9318 34.4577 16.0565C34.3969 17.4131 33.141 19.0766 32.2029 20.2078L31.8972 20.5731C31.5718 20.9586 31.1521 21.4827 30.7799 22.1347L30.4893 22.7038C30.1342 23.4862 29.9684 24.2598 29.9968 24.9899C29.9968 25.0943 30.0025 25.2019 30.0101 25.3241Z" fill="white"/>
<path fill-rule="evenodd" clip-rule="evenodd" d="M44.7198 71.8411L44.4045 73.1805L45.5079 72.9685L44.7198 71.8411Z" fill="white"/>
<path fill-rule="evenodd" clip-rule="evenodd" d="M23.4408 71.5871C23.5946 71.5365 23.6978 71.4156 23.751 71.225C23.8035 71.0383 23.7738 70.88 23.6643 70.7598C23.5503 70.6376 23.3649 70.5388 23.1066 70.466L22.9736 70.4293L22.6698 71.5124L22.835 71.5586C23.0813 71.627 23.2832 71.6371 23.4408 71.5871Z" fill="white"/>
<path fill-rule="evenodd" clip-rule="evenodd" d="M35.4314 72.6664L34.8541 73.9147L35.9777 73.9286L35.4314 72.6664Z" fill="white"/>
<path fill-rule="evenodd" clip-rule="evenodd" d="M51.1948 70.0991L51.0822 71.4709L52.1412 71.0974L51.1948 70.0991Z" fill="white"/>
<path fill-rule="evenodd" clip-rule="evenodd" d="M41.4711 74.3966C41.9414 74.3378 42.2902 74.1903 42.5187 73.9579C42.7473 73.725 42.8384 73.411 42.7897 73.0198C42.7416 72.6394 42.5757 72.3621 42.2959 72.1893C42.0168 72.0171 41.6458 71.9589 41.1881 72.0171L41.0134 72.0386L41.3135 74.4169L41.4711 74.3966Z" fill="white"/>
<path fill-rule="evenodd" clip-rule="evenodd" d="M63.5764 62.4739L63.5245 63.8444L64.5507 63.4392L63.5764 62.4739Z" fill="white"/>
<path fill-rule="evenodd" clip-rule="evenodd" d="M29.0174 72.139L28.2729 73.2968L29.3833 73.4652L29.0174 72.139Z" fill="white"/>
<path fill-rule="evenodd" clip-rule="evenodd" d="M12.1459 63.9006L11.2135 64.9071L12.2567 65.268L12.1459 63.9006Z" fill="white"/>
<path fill-rule="evenodd" clip-rule="evenodd" d="M3.97328 59.7248L3.8739 62.4068L5.89829 60.6452L5.06777 63.8533L4.70695 63.6811L5.26084 61.682L3.50485 63.1798L3.57005 60.8743L2.35909 62.56L1.99827 62.3872L3.97328 59.7248ZM2.75398 55.3797C2.76728 55.3151 2.81032 55.1195 3.27432 55.117C5.41075 55.2626 6.13872 57.2686 6.35331 59.1044C3.95482 57.7605 2.60522 56.057 2.75398 55.3797ZM7.97259 61.4851L8.18528 65.0402L7.79344 64.8882L7.74533 64.0349L6.4179 63.5184L5.80577 64.116L5.41837 63.964L7.97259 61.4851ZM9.07394 62.4264L9.19421 62.0922L10.9407 62.7233L10.8204 63.0563L10.1273 62.8056L9.19295 65.3934L8.82896 65.2617L9.7633 62.6746L9.07394 62.4264ZM12.7696 66.6442L12.3727 66.5075L12.2923 65.6554L10.9452 65.1895L10.3559 65.8086L9.96277 65.6731L12.4233 63.0987L12.7696 66.6442ZM4.3903 69.0048C4.30358 68.8022 4.20609 68.5971 4.09848 68.4313C3.82122 68.0034 3.48129 67.9287 3.24391 67.9439C2.32287 67.9964 1.32207 69.4435 0.804263 70.4183C0.708045 69.7967 0.696017 68.4022 0.80996 67.9173C1.00556 67.0817 1.40246 66.3126 1.7867 65.5688C2.00573 65.1447 2.23108 64.7066 2.42099 64.2547C3.26163 64.8168 4.16685 65.289 5.17777 65.6986C4.82075 66.7354 4.48209 67.8356 4.3903 69.0048ZM17.5988 68.0084L17.733 71.5811L17.3392 71.4147L17.3101 70.5569L15.9738 69.9916L15.3395 70.5677L14.949 70.4031L17.5988 68.0084ZM16.7538 64.4863C16.8399 64.2445 16.9722 64.1736 17.2223 64.1736C17.3128 64.1736 17.4198 64.1837 17.5451 64.1976C17.6375 64.2077 17.7312 64.2179 17.8236 64.2217C17.8104 64.459 17.723 64.749 17.6382 65.0313C17.5882 65.1984 17.5369 65.3687 17.4995 65.5339C17.4609 65.5029 17.4229 65.4719 17.385 65.4421C16.9146 65.0655 16.638 64.8129 16.7538 64.4863ZM19.6643 68.8256L19.8815 71.5077L21.7153 69.5377L21.2576 72.8218L20.8734 72.6883L21.195 70.6386L19.6004 72.3161L19.3934 70.0131L18.3711 71.8198L17.9875 71.6862L19.6643 68.8256ZM22.6877 69.9897L23.2726 70.1537C23.6068 70.2474 23.8493 70.393 24.0018 70.5936C24.1506 70.7937 24.1886 71.031 24.1126 71.3001C24.055 71.5071 23.943 71.6723 23.7739 71.7964C23.603 71.9236 23.3935 71.9723 23.146 71.9407L23.7417 73.5112L23.2815 73.3821L22.7485 71.8685L22.5832 71.8217L22.2288 73.0871L21.8496 72.9807L22.6877 69.9897ZM24.9614 70.6044L25.3444 70.6962L24.6126 73.7144L24.2296 73.622L24.9614 70.6044ZM25.74 70.7967L27.5916 71.1822L27.5194 71.5285L26.7845 71.3753L26.2255 74.0707L25.84 73.9903L26.399 71.2956L25.6679 71.1436L25.74 70.7967ZM30.1528 74.7284L29.7306 74.6639L29.4913 73.8403L28.0575 73.6226L27.584 74.3385L27.165 74.2752L29.1451 71.3L30.1528 74.7284ZM30.9131 71.5394C31.2714 71.9869 31.6309 72.425 31.9955 72.8516C32.3595 73.2821 32.7191 73.7207 33.078 74.167L33.266 71.8812L33.6591 71.9135L33.3939 75.1355L31.229 72.5079L31.0384 74.8146L30.6459 74.7823L30.9131 71.5394ZM35.4416 71.8179L36.9146 75.0722L36.4874 75.0672L36.1367 74.2848L34.6858 74.267L34.3161 75.0406L33.8926 75.0355L35.4416 71.8179ZM38.4731 72.9579C38.8927 73.3339 39.3093 73.7188 39.7264 74.1119L39.5954 71.8204L39.9885 71.7982L40.1733 75.0266L37.666 72.7231L37.7983 75.0349L37.4052 75.057L37.2191 71.8084C37.6356 72.2015 38.0527 72.5857 38.4731 72.9579ZM41.223 71.6558C41.7598 71.5881 42.2054 71.6736 42.5599 71.9065C42.9157 72.1445 43.1208 72.5003 43.1809 72.9744C43.2411 73.453 43.1259 73.8486 42.8404 74.1632C42.5542 74.4765 42.1352 74.6703 41.5902 74.7386L40.966 74.8165L40.578 71.7375L41.223 71.6558ZM44.5603 71.007L46.6549 73.9024L46.2346 73.9828L45.7345 73.2859L44.3103 73.5593L44.1026 74.3917L43.6867 74.4715L44.5603 71.007ZM48.404 72.6351L48.8136 69.9726L50.2816 72.9491L49.8891 73.0554L49.0022 71.1766L48.6262 73.4618L47.1602 71.6716L47.3292 73.7422L46.9367 73.848L46.7164 70.5366L48.404 72.6351ZM50.9127 69.2985L53.4137 71.8489L53.0105 71.9913L52.4123 71.3767L51.045 71.8596L50.9639 72.7142L50.5651 72.8541L50.9127 69.2985ZM52.785 68.7389L54.025 69.6447L54.2061 68.1192L54.6207 67.9394L54.377 69.9581L54.917 71.1969L54.5555 71.3539L54.0155 70.1157L52.3697 68.9193L52.785 68.7389ZM55.0917 63.7906C55.255 63.7551 55.4405 63.7153 55.5152 63.7646C55.5569 63.7919 55.5918 63.8672 55.6133 63.9761C55.6734 64.2831 55.3905 64.6439 55.0619 64.9895C54.948 64.5508 54.8777 64.1653 54.8435 63.8387C54.9277 63.8267 55.01 63.8083 55.0917 63.7906ZM56.3185 70.5348L54.8942 67.7748L55.2443 67.5938L56.6692 70.3543L56.3185 70.5348ZM60.851 65.2199L60.9997 62.5385L62.7215 65.3725L62.3462 65.5105L61.2992 63.7197L61.1479 66.0238L59.54 64.3679L59.904 66.4125L59.5286 66.5505L58.9975 63.2772L60.851 65.2199ZM63.2639 61.6852L65.8356 64.1495L65.445 64.3034L64.8297 63.7096L63.5048 64.2331L63.4611 65.087L63.074 65.2396L63.2639 61.6852ZM66.1945 60.6325L66.3281 60.9591L65.6463 61.2396L66.6883 63.7837L66.33 63.9305L65.288 61.3852L64.6101 61.663L64.4759 61.3351L66.1945 60.6325ZM69.433 54.8088C69.8881 54.8138 69.9312 55.0069 69.9451 55.0715C70.0939 55.7488 68.7449 57.451 66.347 58.7949C66.5401 57.2003 67.2124 54.9892 69.433 54.8088ZM70.9125 65.2598C71.2961 66.0043 71.6936 66.774 71.8892 67.609C72.0025 68.0939 71.9905 69.489 71.8943 70.11C71.3765 69.1339 70.3757 67.6881 69.4553 67.6349C69.4382 67.6343 69.4217 67.6337 69.404 67.6337C69.1711 67.6337 68.8583 67.7248 68.6001 68.1236C68.4925 68.2888 68.3956 68.4946 68.3083 68.6965C68.2171 67.5311 67.8784 66.4303 67.5208 65.3902C68.4405 65.0174 69.3622 64.5572 70.2769 63.9457C70.4668 64.397 70.6928 64.8345 70.9125 65.2598ZM68.3633 59.6988L68.719 59.5462L69.9395 62.4018L69.5837 62.5537L68.9975 61.1826L67.6385 61.7637L68.224 63.1348L67.8682 63.2867L66.6478 60.4318L67.0035 60.2793L67.496 61.4307L68.8551 60.8496L68.3633 59.6988ZM2.03547 63.9881C1.8462 64.4547 1.60882 64.9136 1.37904 65.3592C0.982767 66.1277 0.572573 66.9228 0.363677 67.8128C0.28455 68.1521 0.104774 70.8855 0.663727 71.0874C0.763111 71.1222 0.955548 71.1361 1.1157 70.8146C1.69238 69.6555 2.65583 68.4363 3.26986 68.4009C3.37873 68.3946 3.54332 68.4167 3.71487 68.6807C3.86236 68.9086 3.99972 69.2523 4.10987 69.5277C4.28458 69.9657 4.36307 70.1638 4.59602 70.1208C4.82391 70.0777 4.82391 69.8201 4.82391 69.6137C4.82391 68.292 5.20119 67.0386 5.60442 65.865C6.71157 66.2809 7.82251 66.586 8.8999 66.8823C10.3913 67.2925 11.8054 67.6805 13.1975 68.3357L12.8664 68.6705C12.5828 68.9757 12.4473 69.3447 12.484 69.7093C12.5201 70.0607 12.7151 70.3784 13.0322 70.605C18.247 74.3177 26.8067 76.5345 35.9303 76.5345C41.6857 76.5345 52.4236 75.6818 59.683 69.9784C59.8444 69.8511 59.9387 69.6701 59.9558 69.4549C59.9869 69.0485 59.7362 68.6155 59.5786 68.4458L59.3032 68.1217C60.756 67.4096 62.2366 67.0032 63.7986 66.5746C64.8861 66.2752 65.9882 65.9726 67.094 65.5567C67.4985 66.7342 67.8746 67.9894 67.8746 69.3055C67.8746 69.5118 67.8746 69.7688 68.1031 69.8131C68.3303 69.8568 68.4139 69.6574 68.5892 69.2194C68.6994 68.9434 68.8361 68.6003 68.9842 68.3724C69.1552 68.1084 69.3191 68.0863 69.4292 68.0932C70.0426 68.1274 71.0061 69.3472 71.5828 70.5063C71.7429 70.8266 71.9341 70.8158 72.0347 70.7785C72.5937 70.5778 72.4139 67.8432 72.3348 67.5045C72.1265 66.6139 71.7163 65.8188 71.3194 65.0497C71.089 64.6041 70.8523 64.1445 70.6624 63.6786C71.0934 63.369 71.5239 63.0234 71.9518 62.6366C73.3236 61.3928 72.5095 59.7457 71.8556 58.422L71.7233 58.1536C71.3884 57.4655 71.4505 56.7888 71.5055 56.1913C71.5574 55.6298 71.6062 55.0999 71.2593 54.741C70.9459 54.4163 70.3737 54.2954 69.4014 54.3511V54.3517C67.3681 54.5138 66.1154 56.1799 65.8584 59.0563C65.6925 59.1405 65.5216 59.2234 65.3476 59.3032C62.8145 60.4667 59.5703 61.1301 57.4244 61.5687C55.9052 61.8789 55.0968 62.0505 54.7778 62.2581C54.4302 62.4834 54.3378 63.0051 54.3644 63.5843C54.3353 63.6716 54.3562 63.7583 54.3714 63.8216C54.3802 63.8584 54.3891 63.8957 54.3891 63.9267C54.3891 64.2344 54.4581 64.5186 54.5239 64.7927C54.5752 65.0085 54.6252 65.2149 54.6372 65.4168C51.2949 68.273 43.9772 70.1847 35.9303 70.1847C28.3607 70.1847 21.5444 68.5579 17.9223 65.9631C18.1647 65.1782 18.7199 63.0854 17.9204 62.5657C17.6007 62.3587 16.7936 62.1872 15.275 61.877C13.1285 61.4383 9.88488 60.7756 7.35154 59.6115C7.17683 59.5311 7.00655 59.4481 6.8407 59.3646C6.5818 56.4609 5.32842 54.7942 3.29771 54.6594C3.28821 54.6587 3.27935 54.6581 3.26986 54.6575H3.26606C2.31337 54.6081 1.74935 54.7284 1.43917 55.0493C1.09228 55.4089 1.14165 55.9387 1.19293 56.4995C1.248 57.0971 1.31004 57.7738 0.975171 58.4619L0.844137 58.729C0.189598 60.0539 -0.625094 61.701 0.747285 62.9443C1.16381 63.3228 1.5911 63.6685 2.03547 63.9881Z" fill="white"/>
<path fill-rule="evenodd" clip-rule="evenodd" d="M17.2689 68.7903L16.2631 69.7285L17.2974 70.1665L17.2689 68.7903Z" fill="white"/>
<path fill-rule="evenodd" clip-rule="evenodd" d="M7.66546 62.276L6.69568 63.2464L7.72433 63.6465L7.66546 62.276Z" fill="white"/>
<path fill-rule="evenodd" clip-rule="evenodd" d="M57.7424 41.8903L51.2559 41.3333C51.2401 41.5048 51.2192 41.6744 51.197 41.8447L57.6848 42.4018C57.7051 42.2315 57.7266 42.0612 57.7424 41.8903Z" fill="white"/>
<path fill-rule="evenodd" clip-rule="evenodd" d="M57.5348 36.1708L51.1078 37.3141C51.1363 37.4831 51.1616 37.6527 51.1844 37.8236L57.6165 36.6791C57.5924 36.5089 57.5633 36.3399 57.5348 36.1708Z" fill="white"/>
<path fill-rule="evenodd" clip-rule="evenodd" d="M49.9233 33.472C49.9949 33.6277 50.067 33.7834 50.1335 33.9423L56.0623 31.1659C55.9946 31.0083 55.9224 30.8526 55.8509 30.6968L49.9233 33.472Z" fill="white"/>
<path fill-rule="evenodd" clip-rule="evenodd" d="M53.1223 26.2473C53.0159 26.1131 52.9108 25.977 52.8007 25.8447L47.7847 30.0669C47.8942 30.1992 47.9993 30.3353 48.1043 30.4714L53.1223 26.2473Z" fill="white"/>
<path fill-rule="evenodd" clip-rule="evenodd" d="M49.2046 22.3993C49.0679 22.2949 48.9299 22.1936 48.7906 22.093L44.9767 27.4312C45.1159 27.5319 45.252 27.6363 45.3875 27.7421L49.2046 22.3993Z" fill="white"/>
<path fill-rule="evenodd" clip-rule="evenodd" d="M42.0936 25.7721L44.4705 19.652C44.3123 19.5849 44.1509 19.5267 43.9913 19.4634L41.6182 25.574C41.7777 25.6373 41.9366 25.7031 42.0936 25.7721Z" fill="white"/>
<path fill-rule="evenodd" clip-rule="evenodd" d="M14.2423 42.3981L20.6421 41.848C20.6199 41.6783 20.599 41.508 20.5826 41.3365L14.1847 41.8866C14.2012 42.0575 14.222 42.2278 14.2423 42.3981Z" fill="white"/>
<path fill-rule="evenodd" clip-rule="evenodd" d="M20.732 37.3071L14.3917 36.1791C14.3632 36.3481 14.3341 36.5171 14.3101 36.6874L20.6548 37.8161C20.6782 37.6458 20.7035 37.4761 20.732 37.3071Z" fill="white"/>
<path fill-rule="evenodd" clip-rule="evenodd" d="M15.8571 31.1837L21.7118 33.9247C21.7789 33.7664 21.8511 33.6107 21.9233 33.455L16.0691 30.7147C15.9976 30.8704 15.9248 31.0255 15.8571 31.1837Z" fill="white"/>
<path fill-rule="evenodd" clip-rule="evenodd" d="M24.072 30.0463L19.1073 25.8677C18.9978 26 18.8933 26.1361 18.787 26.271L23.7517 30.4495C23.8568 30.314 23.9625 30.1779 24.072 30.0463Z" fill="white"/>
<path fill-rule="evenodd" clip-rule="evenodd" d="M26.2981 27.8629C26.4323 27.7553 26.5652 27.6477 26.7032 27.5445L22.8406 22.307C22.7038 22.4102 22.5703 22.5191 22.4354 22.6254L26.2981 27.8629Z" fill="white"/>
<path fill-rule="evenodd" clip-rule="evenodd" d="M29.5866 25.8439L26.9393 19.8856C26.7829 19.9565 26.6247 20.0236 26.4702 20.0983L29.12 26.0623C29.2738 25.9863 29.4302 25.9148 29.5866 25.8439Z" fill="white"/>
<path fill-rule="evenodd" clip-rule="evenodd" d="M51.3252 39.8339L62.6517 39.3326C62.6486 39.161 62.6435 38.9895 62.6372 38.8179L51.3119 39.3193C51.3182 39.4902 51.3245 39.6617 51.3252 39.8339Z" fill="white"/>
<path fill-rule="evenodd" clip-rule="evenodd" d="M50.7867 35.8484L61.6214 32.4251C61.5739 32.2599 61.5264 32.0953 61.4752 31.9313L50.6455 35.3528C50.6961 35.5167 50.7417 35.6826 50.7867 35.8484Z" fill="white"/>
<path fill-rule="evenodd" clip-rule="evenodd" d="M49.2312 32.141L58.824 26.0217C58.7354 25.8748 58.6398 25.7318 58.5486 25.5868L48.9641 31.7005C49.0559 31.8454 49.1445 31.9929 49.2312 32.141Z" fill="white"/>
<path fill-rule="evenodd" clip-rule="evenodd" d="M54.4522 20.5699C54.3282 20.4509 54.2054 20.3313 54.0794 20.2148L46.4003 28.6047C46.5262 28.7218 46.6516 28.8389 46.7731 28.9605L54.4522 20.5699Z" fill="white"/>
<path fill-rule="evenodd" clip-rule="evenodd" d="M49.0514 16.5497C48.902 16.4655 48.7539 16.3781 48.6026 16.2971L43.2587 26.3398C43.41 26.4221 43.5568 26.5094 43.7049 26.5968L49.0514 16.5497Z" fill="white"/>
<path fill-rule="evenodd" clip-rule="evenodd" d="M20.5265 39.3174L9.28981 38.8198C9.28348 38.9914 9.27841 39.1629 9.27588 39.3345L20.5132 39.832C20.5138 39.6598 20.5201 39.4883 20.5265 39.3174Z" fill="white"/>
<path fill-rule="evenodd" clip-rule="evenodd" d="M21.1965 35.3407L10.4478 31.9446C10.3972 32.1085 10.3491 32.2737 10.3022 32.4383L21.0553 35.8364C21.1009 35.6705 21.1458 35.5047 21.1965 35.3407Z" fill="white"/>
<path fill-rule="evenodd" clip-rule="evenodd" d="M22.887 31.6811L13.3658 25.608C13.2746 25.7529 13.1797 25.896 13.0911 26.0429L22.6192 32.1211C22.706 31.973 22.7952 31.8261 22.887 31.6811Z" fill="white"/>
<path fill-rule="evenodd" clip-rule="evenodd" d="M25.2763 28.7596L17.5016 20.5447C17.3776 20.6637 17.251 20.7789 17.1288 20.9004L24.9092 29.121C25.0295 28.9982 25.1523 28.8786 25.2763 28.7596Z" fill="white"/>
<path fill-rule="evenodd" clip-rule="evenodd" d="M21.9519 17.0922L27.6611 26.8874C27.806 26.7949 27.9516 26.7044 28.0991 26.6164L22.3931 16.827C22.2456 16.9143 22.0981 17.0023 21.9519 17.0922Z" fill="white"/>
<path fill-rule="evenodd" clip-rule="evenodd" d="M17.7038 17.4246L17.3196 17.0903L16.71 17.7923C16.5846 17.936 16.5251 18.0987 16.5315 18.2785C16.5359 18.4678 16.6036 18.6197 16.7353 18.7336C16.8992 18.8818 17.1354 18.9913 17.4443 19.0628C17.75 19.1318 18.102 19.1533 18.5001 19.1286L18.5293 18.9008C18.2856 18.897 18.0577 18.8678 17.8462 18.8134C17.6468 18.7526 17.4905 18.6729 17.3784 18.5754C17.2759 18.4868 17.2164 18.3735 17.2012 18.2361C17.1854 18.0987 17.2208 17.9804 17.3069 17.881L17.7038 17.4246Z" fill="white"/>
<path fill-rule="evenodd" clip-rule="evenodd" d="M20.6453 11.6727C20.7264 11.6247 20.8137 11.5965 20.9061 11.5873C20.9966 11.5741 21.0796 11.5833 21.1555 11.6149L22.0747 12.0218C22.2222 11.935 22.0873 11.7864 21.6695 11.5767C21.4588 11.4683 21.3163 11.4006 21.2429 11.373C21.0441 11.2777 20.8416 11.2244 20.6358 11.2146C20.432 11.208 20.2623 11.2448 20.1256 11.3256C20.0484 11.3815 19.9908 11.4361 19.9515 11.4893L20.4402 11.8469C20.4997 11.7766 20.5681 11.7187 20.6453 11.6727Z" fill="white"/>
<path fill-rule="evenodd" clip-rule="evenodd" d="M23.2087 10.6828C23.291 10.6378 23.3669 10.6005 23.4372 10.5701C23.5619 10.5163 23.7252 10.4916 23.9259 10.4973C24.1443 10.5093 24.3696 10.5498 24.6039 10.6201L24.9248 10.4808L24.0823 9.73578C23.9544 9.60158 23.8158 9.51612 23.6657 9.47878C23.5138 9.43826 23.3682 9.44839 23.2277 9.50916C23.0751 9.58449 22.9656 9.65729 22.8991 9.72755L23.3935 10.0687C23.3961 10.0308 23.4176 9.99595 23.4594 9.96367C23.5151 9.92125 23.5682 9.88897 23.6189 9.86681C23.6923 9.83516 23.7797 9.83896 23.8803 9.87884C23.9917 9.92252 24.1 9.99658 24.2044 10.0991L24.7115 10.4688L24.6532 10.4941C24.169 10.3479 23.7949 10.253 23.5315 10.2099C23.2359 10.1574 23.0257 10.1586 22.901 10.2124C22.8371 10.2359 22.7801 10.265 22.7308 10.2998C22.689 10.3321 22.6567 10.3644 22.6339 10.3973L23.0827 10.7929C23.1055 10.76 23.1479 10.7233 23.2087 10.6828Z" fill="white"/>
<path fill-rule="evenodd" clip-rule="evenodd" d="M18.4667 15.476L19.1813 16.2293C19.1548 16.4534 19.1136 16.6446 19.0585 16.8022C19.0035 16.9598 18.9313 17.0814 18.8421 17.1655C18.7617 17.2421 18.6661 17.2922 18.554 17.3162C18.4451 17.3434 18.3375 17.3403 18.2299 17.3073C18.2185 17.2953 18.2116 17.2846 18.2084 17.2757C18.2027 17.2573 18.2033 17.2453 18.2097 17.2396C18.3432 17.0598 18.4319 16.8883 18.4749 16.7243C18.5154 16.5509 18.5021 16.4319 18.435 16.3673C18.385 16.3091 18.2964 16.2559 18.1692 16.2072C18.0615 16.1755 17.9286 16.1508 17.7792 16.1318C18.0039 15.909 18.2337 15.6906 18.4667 15.476ZM27.5459 11.5963C27.4269 11.7165 27.3136 11.7963 27.206 11.8355C27.1262 11.8647 27.0541 11.864 26.9888 11.8336C26.9205 11.8089 26.8743 11.7627 26.8496 11.6944C26.8072 11.5659 26.8148 11.445 26.8736 11.3335C26.9236 11.2114 27.011 11.1272 27.1344 11.0822C27.2338 11.0462 27.3509 11.0322 27.4858 11.0417C27.6149 11.0493 27.7434 11.086 27.8713 11.1519C27.7732 11.3279 27.6643 11.476 27.5459 11.5963ZM17.5862 16.3275C17.614 16.3319 17.6393 16.3382 17.6609 16.3471C17.6995 16.3629 17.7362 16.3895 17.7716 16.4262C17.859 16.5129 17.8786 16.6408 17.8286 16.8104C17.7792 16.9744 17.6811 17.127 17.533 17.2668C17.8641 17.4795 18.2015 17.6011 18.5458 17.6308C18.8813 17.6581 19.1434 17.5821 19.3308 17.4036C19.4169 17.3219 19.484 17.2232 19.5321 17.1073C19.5928 16.9858 19.6289 16.8548 19.6416 16.7142L20.0359 17.1295L20.693 16.989L18.8921 15.0924C19.1611 14.8551 19.4346 14.624 19.7131 14.398L21.0963 16.1559L21.7831 16.1021L20.1607 14.041C20.462 13.8074 20.7677 13.5789 21.0798 13.358L21.5083 14.0176L21.2684 14.1739C21.2292 14.1992 21.2083 14.2334 21.2051 14.2758C21.1906 14.3157 21.1963 14.355 21.2216 14.3942C21.2931 14.5044 21.471 14.5867 21.754 14.6405C22.0369 14.6943 22.2357 14.6841 22.349 14.6101C22.392 14.5822 22.4218 14.543 22.4389 14.4911C22.4446 14.4373 22.4332 14.3885 22.4053 14.3461L21.5533 13.0358C21.7647 12.8933 21.9768 12.7528 22.192 12.6167L23.4625 14.5702L24.1157 14.5246L22.6794 12.3154C23.3352 11.9204 24.0075 11.5513 24.6987 11.2146L25.0564 11.9305L23.917 12.4996C23.8524 12.5319 23.8106 12.5813 23.7916 12.6471C23.7688 12.7155 23.7726 12.78 23.803 12.8408C23.8752 12.9851 24.0075 13.1041 24.2012 13.1972C24.4025 13.2959 24.5544 13.32 24.657 13.2687C24.6912 13.2516 24.7101 13.2276 24.7139 13.1972C24.731 13.1649 24.731 13.132 24.7139 13.0978L24.6146 12.8984C24.5956 12.8604 24.5924 12.8218 24.6057 12.7819C24.6095 12.742 24.6266 12.7142 24.657 12.699L25.2837 12.3863L25.7388 13.2978L26.3933 13.3263L25.2191 10.974C25.9433 10.6404 26.6845 10.3385 27.4435 10.072L27.7543 10.9234C27.5536 10.8069 27.3663 10.7265 27.1916 10.6822C27.0169 10.6373 26.8801 10.6328 26.7801 10.6695C26.5674 10.7423 26.4085 10.8753 26.3022 11.0677C26.199 11.2545 26.1825 11.4456 26.2541 11.6412C26.33 11.8482 26.5104 12.0217 26.7966 12.1616C27.0789 12.3021 27.3232 12.335 27.5302 12.2591C27.622 12.2255 27.7094 12.1622 27.7929 12.0685C27.8872 11.9799 27.9727 11.8672 28.0493 11.7311L28.2348 12.2394L28.8931 12.3717L28.4779 11.2355C28.5317 11.0848 28.6051 10.9588 28.6988 10.8563C28.795 10.7493 28.8969 10.6759 29.0052 10.636C29.0647 10.6145 29.121 10.6208 29.1748 10.6556C29.2343 10.6835 29.2767 10.7316 29.3014 10.7993C29.3451 10.919 29.3628 11.0595 29.3539 11.2203C29.3362 11.3944 29.297 11.5665 29.2375 11.7374L29.8363 11.8913C29.9275 11.5235 29.918 11.1886 29.8072 10.8854C29.7306 10.674 29.5717 10.4929 29.3305 10.341C29.0849 10.1872 28.8779 10.1403 28.7108 10.2018C28.6304 10.2309 28.5538 10.2745 28.4804 10.3328C28.3968 10.3999 28.3158 10.4815 28.2379 10.5778L27.9866 9.88967C28.55 9.70547 29.1204 9.53582 29.6996 9.39022L29.5704 9.27755L29.5723 9.27691L29.5477 9.25729L29.1887 8.94458C23.5954 10.4366 18.7262 13.7207 15.2339 18.141L15.8226 18.2968C16.3758 17.6093 16.9671 16.9548 17.5862 16.3275Z" fill="white"/>
<path fill-rule="evenodd" clip-rule="evenodd" d="M26.1434 8.81545C26.2327 8.78886 26.3238 8.78126 26.4162 8.79329C26.5074 8.80152 26.5859 8.82874 26.653 8.87495L27.4613 9.46365C27.624 9.41491 27.524 9.24526 27.1626 8.95534C26.9803 8.80595 26.8562 8.71037 26.7903 8.66795C26.6169 8.53375 26.4314 8.4388 26.2333 8.3831C26.0358 8.33182 25.8623 8.32802 25.7117 8.3736C25.625 8.40842 25.5566 8.4464 25.5066 8.48818L25.906 8.93319C25.9788 8.88001 26.0579 8.84077 26.1434 8.81545Z" fill="white"/>
<path fill-rule="evenodd" clip-rule="evenodd" d="M37.2847 11.673C37.3935 11.6122 37.5157 11.5894 37.6505 11.604L37.9671 11.6388L37.7556 11.2311L37.4708 11.2001C37.2891 11.1805 37.1277 11.2121 36.9865 11.2944C36.8492 11.3818 36.7707 11.4951 36.751 11.6337C36.7232 11.8869 36.7979 12.1192 36.9758 12.3307C37.1606 12.5516 37.3777 12.6757 37.6265 12.7029C37.7955 12.7219 37.943 12.7143 38.0709 12.6814C38.2019 12.6529 38.3272 12.6003 38.4469 12.5237L38.2418 12.0534C38.1127 12.1414 37.9664 12.2129 37.8025 12.2674C37.6524 12.311 37.5119 12.3256 37.3815 12.311C37.2923 12.3015 37.2226 12.2598 37.1707 12.1857C37.1157 12.1072 37.0929 12.0211 37.103 11.9287C37.11 11.8224 37.1707 11.7375 37.2847 11.673Z" fill="white"/>
<path fill-rule="evenodd" clip-rule="evenodd" d="M42.3773 10.5436C42.4938 10.4689 42.6153 10.4486 42.7426 10.4822L43.3275 10.6366L43.4579 10.1441L42.559 9.90674C42.3741 9.858 42.2026 9.87636 42.0437 9.96182C41.876 10.0492 41.7696 10.1764 41.7253 10.3448C41.6645 10.5569 41.6709 10.8177 41.7424 11.1266C41.8158 11.431 41.9513 11.7571 42.1494 12.1033L42.3665 12.0286C42.2627 11.8083 42.188 11.5912 42.1437 11.3772C42.1108 11.1709 42.1127 10.9962 42.1507 10.8525C42.1855 10.7208 42.2608 10.6183 42.3773 10.5436Z" fill="white"/>
<path fill-rule="evenodd" clip-rule="evenodd" d="M53.9754 16.1445C53.9557 16.2699 53.8988 16.3838 53.8038 16.4857C53.7203 16.5756 53.6418 16.6421 53.569 16.6858C53.4962 16.7351 53.4329 16.7624 53.3791 16.7681C53.3316 16.5744 53.3151 16.4003 53.329 16.2458C53.3379 16.0964 53.3765 15.9857 53.4443 15.9129C53.5145 15.8375 53.5943 15.7901 53.6829 15.7698C53.769 15.7527 53.8374 15.7723 53.8886 15.828C53.9633 15.9103 53.9924 16.016 53.9754 16.1445ZM53.4575 15.3279C53.253 15.3729 53.1397 15.5191 53.0903 15.8248C53.0372 16.1217 53.0739 16.4585 53.2011 16.8339C52.9517 16.9016 52.7188 16.8927 52.5035 16.8073C52.5459 16.7174 52.5675 16.6427 52.5675 16.5826C52.5744 16.511 52.5611 16.4578 52.5282 16.4249C52.4744 16.3705 52.401 16.3477 52.3079 16.3559C52.2149 16.3705 52.1307 16.4148 52.0554 16.4895C51.9769 16.5674 51.9534 16.6705 51.9857 16.7997C52.018 16.9288 52.0921 17.0434 52.2085 17.1434L52.0237 18.0423L52.3377 18.1347L52.3655 17.2567C52.7491 17.3548 53.0954 17.3827 53.405 17.3396C53.7177 17.3055 53.9639 17.1991 54.1449 17.02C54.4773 16.6724 54.6286 16.0287 54.1823 15.5254C54.0373 15.3754 53.8113 15.2703 53.4575 15.3279Z" fill="white"/>
<path fill-rule="evenodd" clip-rule="evenodd" d="M52.6854 19.5248C52.5094 19.502 52.3582 19.4165 52.2315 19.2684C52.0043 19.0095 51.8359 18.7601 51.7251 18.5195C51.6137 18.2853 51.5631 18.0663 51.5732 17.8625L51.3485 17.8447C51.3282 18.1473 51.3713 18.4486 51.477 18.7487C51.5935 19.0677 51.7675 19.3627 51.9999 19.6336C52.1708 19.8337 52.3657 19.9546 52.5854 19.9957C52.8114 20.0375 53.0013 19.9919 53.1564 19.8596C53.2881 19.7463 53.364 19.564 53.3836 19.3127C53.4033 19.0614 53.3564 18.8696 53.2437 18.7373C53.1823 18.6664 53.1026 18.6119 53.0032 18.574C52.9013 18.5271 52.7848 18.4986 52.6531 18.4885L52.6354 19.0063C52.7418 18.9937 52.8361 18.9993 52.9184 19.0234C53.0159 19.0525 53.0836 19.0892 53.1222 19.1342C53.1608 19.1798 53.1823 19.2279 53.1874 19.2791C53.1988 19.3317 53.1849 19.3741 53.1463 19.407C53.0203 19.5146 52.8665 19.5539 52.6854 19.5248Z" fill="white"/>
<path fill-rule="evenodd" clip-rule="evenodd" d="M36.7311 8.62376C37.0508 8.63262 37.3686 8.64781 37.6851 8.66807L37.6344 9.73153L36.6805 9.68659L36.7311 8.62376ZM47.6317 11.3773C47.916 11.521 48.197 11.6704 48.4755 11.8243L47.9761 12.7719L47.1316 12.3269L47.6317 11.3773ZM44.5001 11.6881C44.2937 11.7064 44.1114 11.6855 43.9525 11.6267C43.8386 11.5792 43.7519 11.5083 43.6924 11.4133C43.6379 11.3165 43.6265 11.226 43.6575 11.1424C43.7025 11.0095 43.8322 10.9177 44.0462 10.8664C44.2583 10.8189 44.464 10.8322 44.6628 10.9063C44.7584 10.9424 44.852 11.0133 44.9438 11.1203C45.0312 11.2253 45.1014 11.3513 45.1553 11.4982C44.9369 11.5982 44.7185 11.6615 44.5001 11.6881ZM32.3311 10.981C32.614 11.1797 32.8957 11.2652 33.1743 11.2386C33.373 11.219 33.5344 11.1266 33.6591 10.9614C33.7883 10.7955 33.8421 10.6069 33.8218 10.3954C33.8136 10.3068 33.7927 10.2258 33.7598 10.1517C33.7275 10.0827 33.6826 10.0144 33.625 9.94726C33.7528 10.0334 33.8693 10.0922 33.975 10.1245C34.0814 10.1657 34.1852 10.1815 34.2865 10.1713C34.4036 10.1517 34.4865 10.122 34.5333 10.0834L34.6194 10.9708L35.2202 11.2323L34.9689 8.63439C35.3113 8.62046 35.655 8.61223 36 8.61223C36.0532 8.61223 36.1051 8.61413 36.1577 8.61413L36.1083 9.65924L35.9177 9.64974C35.8709 9.64784 35.8342 9.66304 35.807 9.69595C35.7715 9.71938 35.7532 9.75482 35.7513 9.80167C35.7462 9.89915 35.8469 10.0612 36.0532 10.2878C36.2589 10.5138 36.4102 10.6297 36.5084 10.6341C36.5419 10.636 36.5704 10.6202 36.5932 10.5872C36.6248 10.5461 36.6419 10.5005 36.6445 10.4492L36.6565 10.1948L37.6104 10.2403L37.5775 10.9398L38.1314 11.3488L38.2567 8.71161C39.0607 8.78125 39.8545 8.88823 40.6356 9.03002L40.5641 9.45667L39.7481 9.31994C39.5468 9.28576 39.3652 9.31804 39.2025 9.41553C39.0436 9.51808 38.9493 9.65481 38.9208 9.82636C38.879 10.0732 38.9056 10.3404 38.9993 10.6271C39.0841 10.917 39.2316 11.2171 39.4424 11.5279L39.6519 11.4336C39.5152 11.2475 39.4177 11.0569 39.3601 10.862C39.3082 10.6594 39.2974 10.4663 39.3284 10.2821C39.3519 10.1397 39.4221 10.0308 39.538 9.95612C39.6468 9.87067 39.7728 9.84028 39.9146 9.86434L40.4799 9.95866L40.259 11.2772L40.7603 11.7488L41.1984 9.1389C42.6898 9.44401 44.1349 9.87763 45.5212 10.4277L45.2263 11.219C45.1535 11.0012 45.049 10.8126 44.9135 10.6537C44.7705 10.4917 44.6236 10.3821 44.4723 10.3258C44.2394 10.234 44.0178 10.2258 43.8083 10.3018C43.5962 10.372 43.4538 10.5049 43.3816 10.6993C43.2949 10.9303 43.3304 11.2057 43.4867 11.5273C43.6412 11.852 43.8343 12.0577 44.0647 12.1438C44.1919 12.1919 44.3274 12.2109 44.4717 12.2008C44.6141 12.1951 44.7578 12.1565 44.9028 12.0837L44.7249 12.5604L45.1281 13.1187L46.0517 10.6455C46.4113 10.7974 46.7664 10.9569 47.1171 11.1247L46.6246 12.0596L46.4556 11.9704C46.4144 11.9489 46.3745 11.947 46.3359 11.9653C46.2942 11.9716 46.2625 11.9957 46.2403 12.0368C46.1948 12.1236 46.2176 12.3128 46.3081 12.6053C46.3986 12.8978 46.4872 13.0668 46.5733 13.1117C46.6037 13.1282 46.636 13.1256 46.6702 13.1054C46.7164 13.082 46.7512 13.0478 46.7752 13.0022L46.8936 12.7775L47.7387 13.2225L47.4121 13.8422L47.7406 14.4467L48.9743 12.1071C49.2788 12.2844 49.5801 12.4679 49.877 12.6572L48.6331 14.5626L48.9041 15.1956L50.3562 12.9705C50.9816 13.389 51.5874 13.8333 52.173 14.303L51.6748 14.9399L50.6721 14.1556C50.6151 14.1106 50.5525 14.0942 50.4847 14.1055C50.4132 14.1144 50.3562 14.1454 50.3144 14.1992C50.2151 14.3258 50.165 14.4967 50.1638 14.712C50.1612 14.9354 50.2049 15.0829 50.2954 15.1538C50.3252 15.1772 50.355 15.1842 50.3841 15.1747C50.4202 15.176 50.4505 15.1621 50.474 15.1317L50.6113 14.9563C50.6373 14.9228 50.6715 14.9038 50.7132 14.8987C50.7506 14.8848 50.7829 14.8886 50.8095 14.9095L51.3614 15.3412L50.7335 16.1432L50.9886 16.7471L52.6161 14.6664C52.8541 14.8664 53.0896 15.069 53.3206 15.2773L53.7042 14.8747C49.0123 10.6391 42.8037 8.05518 36 8.05518C35.2151 8.05518 34.4384 8.08936 33.6705 8.15646L34.0219 8.69009C34.1466 8.6806 34.2719 8.67553 34.3966 8.66794L34.4694 9.41806C34.4169 9.49592 34.3548 9.55732 34.2827 9.60227C34.2099 9.64784 34.1314 9.67443 34.0472 9.68266C33.8826 9.69912 33.7547 9.70292 33.6642 9.69406C33.5617 9.69152 33.4857 9.6757 33.4357 9.64595C33.5186 9.57378 33.5807 9.48706 33.6218 9.38514C33.6629 9.28323 33.6788 9.18131 33.6693 9.08003C33.6497 8.87683 33.5117 8.69009 33.2565 8.51854C33.0052 8.347 32.7552 8.27293 32.5058 8.29699C32.3836 8.30902 32.2595 8.35079 32.1342 8.42233C32.0038 8.48626 31.8848 8.57425 31.7759 8.68756L32.1013 9.0718C32.2095 8.95912 32.3361 8.85911 32.4817 8.77238C32.6153 8.70022 32.7413 8.65781 32.8596 8.64641C32.9654 8.63628 33.0565 8.65717 33.1344 8.70971C33.2167 8.76542 33.2616 8.83758 33.2705 8.92684C33.2831 9.06167 33.261 9.18321 33.2034 9.29146C33.1743 9.38768 33.097 9.44655 32.9711 9.46744C32.897 9.45288 32.8103 9.45731 32.7096 9.47946C32.5982 9.51175 32.4874 9.55859 32.3779 9.62063L32.6457 10.0745C32.8508 10.0334 33.0552 9.93903 33.2578 9.79091C33.3047 9.82952 33.3407 9.8751 33.3673 9.92764C33.3926 9.96815 33.4085 10.0239 33.4154 10.096C33.4351 10.2517 33.3952 10.3942 33.2971 10.5227C33.1856 10.6486 33.054 10.7189 32.9014 10.7341C32.7071 10.7525 32.5077 10.6974 32.3039 10.5683C32.0981 10.4303 31.9221 10.2403 31.7753 9.99854L31.5974 10.1435C31.7936 10.4999 32.038 10.779 32.3311 10.981Z" fill="white"/>
<path fill-rule="evenodd" clip-rule="evenodd" d="M53.3075 18.5279L53.4841 19.159L55.3445 17.3207C55.4832 17.4758 55.6224 17.6303 55.7573 17.7892L55.9168 17.1194C55.587 16.7428 55.2464 16.3763 54.8964 16.0186L54.5033 16.4149C54.6577 16.5731 54.8077 16.7352 54.9584 16.8966L53.3075 18.5279Z" fill="white"/>
<path fill-rule="evenodd" clip-rule="evenodd" d="M54.4521 19.7921H55.2601V18.9842H54.4521V19.7921Z" fill="white"/>
<path fill-rule="evenodd" clip-rule="evenodd" d="M55.2554 18.9984H56.0633V18.1904H55.2554V18.9984Z" fill="white"/>
<path fill-rule="evenodd" clip-rule="evenodd" d="M18.511 83.0414C18.1882 83.1953 17.8799 83.2725 17.5868 83.2725C17.3741 83.2655 17.1912 83.2028 17.0367 83.0857C16.8899 82.961 16.8165 82.8211 16.8165 82.6673C16.8095 82.4255 16.9633 82.1983 17.2792 81.9856C17.5938 81.7798 17.935 81.6773 18.3021 81.6773C18.4781 81.6773 18.6725 81.7362 18.8852 81.8533C19.0903 81.971 19.2808 82.1318 19.4574 82.3375C19.1637 82.6312 18.8484 82.8655 18.511 83.0414ZM7.2894 84.3947C7.19445 84.2992 7.14697 84.1821 7.14697 84.0422C7.14697 83.9035 7.19445 83.7858 7.2894 83.6908C7.38499 83.5952 7.5021 83.5471 7.64199 83.5471C7.78126 83.5471 7.89836 83.5952 7.99395 83.6908C8.0889 83.7858 8.13701 83.9035 8.13701 84.0422C8.13701 84.1821 8.0889 84.2992 7.99395 84.3947C7.89836 84.4897 7.78126 84.5378 7.64199 84.5378C7.5021 84.5378 7.38499 84.4897 7.2894 84.3947ZM2.75709 81.1929C2.66911 81.3765 2.552 81.5012 2.40514 81.5671C2.207 81.5012 2.04938 81.3841 1.93227 81.2151C1.80757 81.0537 1.7449 80.8777 1.7449 80.6872C1.7449 80.5327 1.80757 80.3941 1.93227 80.2687C2.07154 80.144 2.22916 80.082 2.40514 80.082C2.5444 80.082 2.66214 80.1301 2.75709 80.2251C2.85268 80.32 2.90016 80.4378 2.90016 80.577C2.90016 80.8125 2.85268 81.017 2.75709 81.1929ZM26.8496 84.4277L27.8397 84.9784V80.3574H28.8303L28.3347 79.4769H23.5712H23.351H20.8873H20.667H15.3756H15.1553H12.6916H12.4713H5.92528H5.70562H3.67048L4.22057 80.3574H4.44022V82.3925L3.34004 81.8969C3.44259 81.7943 3.52362 81.6627 3.58249 81.5012C3.64072 81.3398 3.67048 81.1784 3.67048 81.017C3.67048 80.6283 3.4869 80.2396 3.12039 79.851C2.74627 79.4547 2.37912 79.2572 2.0202 79.2572C1.66825 79.2572 1.36693 79.3635 1.11815 79.5762C0.875709 79.7959 0.754803 80.0561 0.754803 80.3574C0.762399 80.6062 0.875709 80.8638 1.096 81.1278C1.31629 81.3765 1.62393 81.5968 2.0202 81.788C1.66065 82.0292 1.05549 82.3419 0.204712 82.7223L0.975093 83.3826C1.92082 82.9211 2.59941 82.5172 3.01024 82.1722L3.89013 82.6122L1.30489 84.2074L2.0202 84.8126L4.44022 83.1623V84.4277L5.43026 84.9784V80.3574H11.3274V81.1278H10.1722C9.76136 81.1278 9.42396 81.2664 9.15999 81.5449C8.88083 81.8386 8.7422 82.176 8.7422 82.5571C8.73461 83.0274 8.98781 83.5326 9.50119 84.0757C10.0146 84.6037 10.4944 84.8676 10.9419 84.8676C10.9641 84.8752 11.0268 84.8562 11.1293 84.8126L11.2724 84.7575C11.1477 85.1911 10.9679 85.5348 10.733 85.7918C10.5058 86.0558 10.264 86.1881 10.007 86.1881C9.8753 86.1881 9.77212 86.1438 9.69869 86.0558C9.6183 85.9824 9.57399 85.8798 9.56702 85.7475C9.56702 85.6159 9.62589 85.4987 9.743 85.3956C9.88227 85.2785 10.0437 85.1936 10.2273 85.1424L9.34673 84.5923C9.21507 84.622 9.09416 84.6809 8.98402 84.7689C8.88083 84.8493 8.8188 84.9373 8.79664 85.0328C8.43013 85.0328 8.15476 84.9784 7.97182 84.8676C8.16236 84.8018 8.30922 84.6885 8.41177 84.5264C8.52191 84.358 8.57699 84.1783 8.57699 83.9877C8.57699 83.7238 8.489 83.5035 8.31302 83.3275C8.1516 83.1446 7.94587 83.0528 7.69709 83.0528C7.38881 83.0452 7.12801 83.137 6.91595 83.3275C6.70262 83.5256 6.59691 83.7636 6.59691 84.0422C6.60387 84.4245 6.81277 84.7505 7.2236 85.0214C7.64202 85.2854 8.1478 85.4177 8.7422 85.4177C8.66118 85.6962 8.80424 85.9678 9.17076 86.2318C9.54487 86.4957 9.97025 86.628 10.4469 86.628C10.7261 86.628 10.997 86.5249 11.261 86.3198C11.518 86.114 11.7231 85.8323 11.8775 85.4728L12.3175 86.4078L12.9226 86.133L12.0972 84.7575C12.2516 84.7144 12.3688 84.6328 12.4491 84.5157C12.5447 84.3834 12.5922 84.2441 12.5922 84.0972C12.5922 83.8921 12.5004 83.6725 12.3175 83.4376C12.1339 83.2174 11.9503 83.1072 11.7674 83.1072C11.5693 83.1072 11.4002 83.1591 11.261 83.2617C11.1217 83.3642 11.0521 83.4959 11.0521 83.6573C11.0521 83.7972 11.1072 83.9618 11.2173 84.1523C11.0192 84.2625 10.8539 84.3175 10.7223 84.3175C10.3994 84.3175 10.1279 84.1966 9.90822 83.9548C9.68033 83.7054 9.56702 83.4047 9.56702 83.0528C9.56702 82.7736 9.65501 82.528 9.83099 82.3159C10 82.1102 10.2051 82.007 10.4469 82.007H12.3175V80.3574H13.8905V84.3175L14.8806 84.9784V80.3574H19.4022V81.8418C19.1528 81.5342 18.8705 81.2923 18.5552 81.1164C18.2248 80.9404 17.9203 80.8524 17.6418 80.8524C17.2088 80.8448 16.8461 80.9657 16.5524 81.2151C16.2517 81.4569 16.1017 81.7582 16.1017 82.1172C16.1017 82.5426 16.3251 82.9679 16.7726 83.3933C17.2202 83.8263 17.6563 84.0422 18.0817 84.0422C18.3166 84.0422 18.5476 83.9915 18.7749 83.8884C19.0021 83.7934 19.211 83.6427 19.4022 83.4376V84.3175L20.3922 84.9784V80.3574H22.0862V84.3175L23.0762 84.9784V80.3574H26.8496V81.788H24.6493C24.5246 81.788 24.422 81.831 24.3416 81.9197C24.2536 82.007 24.2093 82.1102 24.2093 82.2273C24.2093 82.5058 24.3226 82.792 24.5505 83.0857C24.7847 83.3933 25.0012 83.5472 25.1994 83.5472C25.2652 83.5472 25.3133 83.5256 25.3424 83.4813C25.3937 83.4446 25.4197 83.3933 25.4197 83.3275V82.942C25.4197 82.8698 25.445 82.8065 25.4962 82.7553C25.533 82.697 25.5811 82.6673 25.6393 82.6673H26.8496V84.4277Z" fill="white"/>
<path fill-rule="evenodd" clip-rule="evenodd" d="M27.8728 85.5827C27.5576 85.3263 27.3082 85.1984 27.1246 85.1984C26.9708 85.1984 26.8277 85.2199 26.6954 85.2636C26.5859 85.301 26.472 85.37 26.3549 85.4725L26.7397 86.0777C26.8353 86.0043 26.9233 85.953 27.0037 85.9239C27.1062 85.8802 27.2018 85.858 27.2898 85.858C27.5392 85.865 28.038 86.2644 28.7863 87.057L29.38 87.6729L29.7098 87.3975C29.2699 86.9209 28.6578 86.3157 27.8728 85.5827Z" fill="white"/>
<path fill-rule="evenodd" clip-rule="evenodd" d="M40.139 81.2375C39.963 81.1932 39.8162 81.0831 39.699 80.9077C39.5889 80.7463 39.5338 80.5437 39.5338 80.3019C39.5414 80.1335 39.5813 79.9898 39.6547 79.8734C39.7282 79.7556 39.8162 79.6968 39.9187 79.6968C39.9921 79.6968 40.0434 79.7411 40.0732 79.8284C40.1168 79.9025 40.139 80.005 40.139 80.1373V81.2375ZM47.9943 79.4771H44.155H43.9347H41.0191L41.5692 80.357H42.6693V82.2269H41.1292V80.6324C41.1292 80.288 40.9608 79.9468 40.6234 79.6094C40.2784 79.2644 39.9334 79.0916 39.5891 79.0916C39.303 79.0853 39.0574 79.1758 38.8523 79.367C38.6465 79.5721 38.544 79.8114 38.544 80.0823C38.544 80.1728 38.5535 80.2621 38.5718 80.3482L38.0819 79.4771H31.6903L32.1853 80.357H36.2012V81.0717C36.0758 81.0717 35.929 81.135 35.7606 81.2591C35.5922 81.3907 35.427 81.5673 35.2656 81.787C35.0605 81.5382 34.8478 81.3477 34.6275 81.2154C34.4078 81.0831 34.1983 81.0166 34.0008 81.0166C33.6413 81.0166 33.3292 81.1489 33.0652 81.4129C32.8088 81.6705 32.6803 81.9782 32.6803 82.3371C32.6803 82.7188 32.8456 83.1227 33.1754 83.5468C33.4906 83.988 33.9489 84.4279 34.5509 84.8673L34.8256 84.5381C34.4439 84.2146 34.1508 83.9 33.9457 83.5917C33.74 83.2613 33.6375 82.9714 33.6375 82.7226C33.6375 82.451 33.7109 82.2307 33.8578 82.0624C34.004 81.8794 34.18 81.787 34.3857 81.787C34.5104 81.787 34.6275 81.8206 34.7376 81.8858C34.8478 81.9446 34.9503 82.0408 35.0459 82.1725C34.8256 82.6422 34.6971 82.9353 34.6604 83.0518L35.5409 83.4379C35.6581 82.9454 35.8416 82.5359 36.0904 82.2048C36.3328 81.8896 36.5892 81.7319 36.8608 81.7319C37.0152 81.7319 37.1469 81.7769 37.2571 81.8636C37.3596 81.9446 37.4109 82.0472 37.4109 82.1725C37.4254 82.4074 37.3121 82.6777 37.0697 82.9866C36.8348 83.3024 36.5088 83.5987 36.0904 83.8779L36.9159 84.6476C37.2678 84.2741 37.5394 83.907 37.7299 83.5468C37.9205 83.1885 38.016 82.8587 38.016 82.5574C38.016 82.22 37.9388 81.9187 37.785 81.6547C37.6457 81.3907 37.4476 81.2154 37.1906 81.1268V80.357H38.5744C38.632 80.614 38.7719 80.8489 38.9953 81.0616C39.3175 81.3616 39.6992 81.549 40.1392 81.6218V82.2269H39.8094C39.7062 82.2269 39.6182 82.2561 39.5448 82.3149C39.472 82.3814 39.4315 82.4624 39.4239 82.5574C39.4315 82.7777 39.6074 83.0518 39.9524 83.3828C40.2968 83.712 40.5791 83.8779 40.7994 83.8779C40.8944 83.8779 40.9754 83.8335 41.0412 83.7456C41.1001 83.6652 41.1292 83.5626 41.1292 83.4379V83.1068H42.6693V84.4279L43.6594 84.9774V80.357H47.6638V81.1268H46.2339C45.8819 81.1268 45.5812 81.2331 45.3318 81.4464C45.09 81.6667 44.9685 81.9269 44.9685 82.2269C44.9685 82.6606 45.09 83.1068 45.3318 83.5696C45.5591 84.0393 45.8965 84.509 46.344 84.9774L46.6738 84.7577C46.3877 84.4792 46.168 84.1817 46.0136 83.8665C45.8673 83.5367 45.7939 83.21 45.7939 82.8872C45.7939 82.6384 45.8819 82.4333 46.0579 82.2719C46.2193 82.0946 46.4244 82.0073 46.6738 82.0073H47.6638V84.3172L48.6539 84.9774V80.357H49.6445L49.1489 79.4771H47.9943Z" fill="white"/>
<path fill-rule="evenodd" clip-rule="evenodd" d="M47.7521 78.4872C47.5248 78.1498 47.3672 77.9295 47.2792 77.8263C47.0589 77.5187 46.7987 77.2693 46.498 77.0781C46.1974 76.8952 45.9112 76.804 45.6397 76.804C45.4789 76.8179 45.3466 76.8471 45.2434 76.8914L45.684 77.8263C45.8308 77.7757 45.9809 77.7497 46.1347 77.7497C46.2961 77.7497 46.4506 77.7827 46.5968 77.8485C46.7437 77.908 46.8608 77.9922 46.9488 78.1023L47.9939 79.4766C48.2876 79.4766 48.2072 79.1468 47.7521 78.4872Z" fill="white"/>
<path fill-rule="evenodd" clip-rule="evenodd" d="M67.9835 80.3573H69.6338V82.2272H67.9835V80.3573ZM69.6337 84.3174L70.6237 84.9776V80.3572H71.6138L71.1187 79.4767H65.7172H65.4969H60.9538H60.7335H58.2692H58.0489H52.5043L52.9993 80.3572H56.7841V81.127H53.7589L53.5937 81.4574C54.0482 81.5891 54.4223 81.7948 54.716 82.0733C54.9946 82.3664 55.1338 82.6747 55.1338 82.9975C55.1338 83.1368 55.068 83.2615 54.9357 83.3716C54.7743 83.4963 54.6021 83.5729 54.4185 83.6027C54.3672 83.4925 54.2868 83.4008 54.1767 83.3273C54.0666 83.2539 53.964 83.2172 53.8684 83.2172C53.7216 83.2172 53.6045 83.2691 53.5165 83.3716C53.4215 83.4811 53.3734 83.6134 53.3734 83.7673C53.3734 83.9945 53.4873 84.1857 53.7146 84.3395C53.9419 84.5085 54.2134 84.5927 54.5287 84.5927L55.1889 86.0778L55.6839 85.8024L54.804 84.5377C55.1117 84.4864 55.3756 84.3617 55.5959 84.1635C55.801 83.973 55.9036 83.7495 55.9036 83.4925C55.9036 83.221 55.8232 82.9532 55.6618 82.6892C55.5149 82.4253 55.3022 82.198 55.0237 82.0075H56.7841V84.4275L57.7741 84.9776V80.3572H59.4681V84.3174L60.4581 84.9776V80.3572H64.2315V81.7872H62.0318C61.9071 81.7872 61.8045 81.8309 61.7235 81.9189C61.6355 82.0075 61.5919 82.11 61.5919 82.2271C61.5919 82.5063 61.7052 82.7918 61.9324 83.0855C62.1673 83.3932 62.3838 83.5476 62.5813 83.5476C62.6477 83.5476 62.6952 83.5255 62.725 83.4811C62.7762 83.4451 62.8015 83.3932 62.8015 83.3273V82.9424C62.8015 82.869 62.8275 82.8064 62.8788 82.7551C62.9155 82.6968 62.963 82.6671 63.0218 82.6671H64.2315V84.4275L65.2222 84.9776V80.3572H66.9934V82.2271H66.6636C66.5826 82.2271 66.5199 82.2563 66.4762 82.3151C66.4173 82.3594 66.3882 82.4215 66.3882 82.5025C66.3882 82.6709 66.575 82.9424 66.9491 83.3166C67.3238 83.6907 67.5947 83.8774 67.7638 83.8774C67.822 83.8774 67.8695 83.8483 67.9062 83.7894C67.9575 83.7166 67.9834 83.6356 67.9834 83.5476V83.1077H69.6337V84.3174Z" fill="white"/>
<path fill-rule="evenodd" clip-rule="evenodd" d="M70.6565 85.5827C70.3413 85.3263 70.0919 85.1984 69.9083 85.1984C69.7545 85.1984 69.6114 85.2199 69.4791 85.2636C69.3696 85.301 69.2557 85.37 69.1385 85.4725L69.5234 86.0777C69.6184 86.0043 69.707 85.953 69.7874 85.9239C69.8899 85.8802 69.9855 85.858 70.0735 85.858C70.3229 85.865 70.8211 86.2644 71.57 87.057L72.1637 87.6729L72.4935 87.3975C72.0536 86.9209 71.4415 86.3157 70.6565 85.5827Z" fill="white"/>
</svg>
